<svg width="31" height="65" viewBox="0 0 31 65" fill="none" xmlns="http://www.w3.org/2000/svg">
<path d="M3.97347 0C5.12305 0.135813 6.27264 0.0679063 7.3546 0.339532C8.90992 0.746969 10.4652 1.29022 11.8853 2.1051C20.6763 7.06226 27.168 14.2603 29.873 23.9709C32.5779 33.8852 30.4139 43.2563 23.3812 51.0655C19.8648 55.0041 15.6046 57.992 10.871 60.3008C9.99189 60.7082 9.18041 61.1157 7.76033 61.8626C9.72139 62.7454 11.2091 63.4245 12.7644 64.1036C12.6968 64.3073 12.6968 64.511 12.6292 64.7826C12.1558 64.8505 11.6825 65.0542 11.2091 64.9863C8.8423 64.7826 6.47551 64.511 4.10871 64.2394C2.55339 64.0356 0.930445 63.8998 0.254219 62.2022C-0.489632 60.4366 0.524702 58.9427 1.67429 57.7883C3.29723 56.2264 5.12305 54.8004 6.94886 53.4423C7.3546 53.1706 8.09845 53.4423 8.70706 53.4423C8.70706 54.0534 8.90992 54.8004 8.63943 55.2078C7.76033 56.4301 6.67837 57.4487 5.59641 58.6031C5.79928 58.671 5.93452 58.8069 6.00215 58.739C20.8791 53.4423 29.7377 42.5773 28.1824 27.0946C28.1148 26.3476 27.9795 25.6007 27.709 24.8537C24.3955 14.464 17.9714 6.79063 8.09845 2.1051C6.81361 1.49394 5.32592 1.22231 3.90584 0.814875C3.90584 0.54325 3.97347 0.271625 3.97347 0Z" fill="#ED1E79"/>
</svg>
