<svg width="40" height="30" viewBox="0 0 40 30" fill="none" xmlns="http://www.w3.org/2000/svg">
<path d="M0 5C0 3.67392 0.526784 2.40215 1.46447 1.46447C2.40215 0.526784 3.67392 0 5 0H35C36.3261 0 37.5979 0.526784 38.5355 1.46447C39.4732 2.40215 40 3.67392 40 5V7.5H0V5ZM0 12.5V25C0 26.3261 0.526784 27.5979 1.46447 28.5355C2.40215 29.4732 3.67392 30 5 30H35C36.3261 30 37.5979 29.4732 38.5355 28.5355C39.4732 27.5979 40 26.3261 40 25V12.5H0ZM7.5 17.5H10C10.663 17.5 11.2989 17.7634 11.7678 18.2322C12.2366 18.7011 12.5 19.337 12.5 20V22.5C12.5 23.163 12.2366 23.7989 11.7678 24.2678C11.2989 24.7366 10.663 25 10 25H7.5C6.83696 25 6.20107 24.7366 5.73223 24.2678C5.26339 23.7989 5 23.163 5 22.5V20C5 19.337 5.26339 18.7011 5.73223 18.2322C6.20107 17.7634 6.83696 17.5 7.5 17.5Z" fill="#333333"/>
</svg>
