<svg width="40" height="40" viewBox="0 0 40 40" fill="none" xmlns="http://www.w3.org/2000/svg">
<g clip-path="url(#clip0_12_175)">
<path d="M0 0H39.985V39.985H0V0Z" fill="black"/>
<path d="M22.1369 6.44912L22.1264 12.443L22.1158 18.4369L21.6227 17.0455L21.6217 17.0429L20.9845 30.3869C21.6111 32.1563 21.9467 33.1008 21.9505 33.1046C21.9553 33.1096 22.3125 33.1312 22.7439 33.1526C24.0511 33.2174 25.6711 33.3563 26.9 33.5091C27.1845 33.5444 27.4294 33.5626 27.4442 33.5493C27.4589 33.5362 27.4669 27.4332 27.462 19.9872L27.453 6.44912H22.1369ZM12.5216 6.43115V19.983C12.5216 27.4366 12.5289 33.5422 12.5378 33.5512C12.5467 33.5601 13.0083 33.5165 13.5636 33.4543C14.1188 33.3921 14.8863 33.3147 15.2689 33.2824C15.8558 33.2329 17.608 33.1202 17.8108 33.119C17.8699 33.1187 17.8736 32.8143 17.8822 27.3791L17.8913 21.6394L18.3152 22.839L18.4652 23.2629L19.1022 9.92209L18.8833 9.30334C18.5563 8.37856 18.2291 7.45387 17.9016 6.52928L17.8664 6.43115H12.5216Z" fill="#B1060F" stroke="black" stroke-width="0.277125"/>
<path d="M12.5216 6.43115V14.0382L17.8803 28.2532C17.881 27.9274 17.8816 27.7515 17.8822 27.3791L17.8913 21.6394L18.3152 22.839C20.6752 29.5168 21.943 33.0971 21.9505 33.1046C21.9553 33.1096 22.3125 33.1312 22.7439 33.1526C24.0511 33.2174 25.6711 33.3563 26.9 33.5091C27.1845 33.5444 27.4294 33.5626 27.4442 33.5493C27.4542 33.5402 27.461 30.5477 27.4627 26.3263L22.1289 10.9919L22.1264 12.443L22.1158 18.4369L21.6227 17.0455C21.1408 15.686 20.8191 14.7768 18.8833 9.30334C18.5563 8.37856 18.2291 7.45387 17.9016 6.52928L17.8664 6.43115H12.5216Z" fill="url(#paint0_radial_12_175)"/>
<path d="M12.5217 6.43115L17.8913 21.6463V21.6394L18.3152 22.839C20.6752 29.5168 21.943 33.0971 21.9505 33.1046C21.9553 33.1096 22.3125 33.1312 22.7439 33.1526C24.0511 33.2174 25.6711 33.3563 26.9 33.5091C27.1831 33.5443 27.4266 33.5622 27.4438 33.5494L22.1156 18.4343V18.4369L21.6225 17.0455C21.1406 15.686 20.8189 14.7768 18.8831 9.30334C18.3625 7.83146 17.9208 6.58334 17.9014 6.52928L17.8663 6.43115H12.5217Z" fill="#E50914"/>
<path d="M22.1369 6.44912L22.1264 12.443L22.1158 18.4369L21.6227 17.0455L21.6217 17.0429L20.9845 30.3869C21.6111 32.1563 21.9467 33.1008 21.9505 33.1046C21.9553 33.1096 22.3125 33.1312 22.7439 33.1526C24.0511 33.2174 25.6711 33.3563 26.9 33.5091C27.1845 33.5444 27.4294 33.5626 27.4442 33.5493C27.4589 33.5362 27.4669 27.4332 27.462 19.9872L27.453 6.44912H22.1369ZM12.5216 6.43115V19.983C12.5216 27.4366 12.5289 33.5422 12.5378 33.5512C12.5467 33.5601 13.0083 33.5165 13.5636 33.4543C14.1188 33.3921 14.8863 33.3147 15.2689 33.2824C15.8558 33.2329 17.608 33.1202 17.8108 33.119C17.8699 33.1187 17.8736 32.8143 17.8822 27.3791L17.8913 21.6394L18.3152 22.839L18.4652 23.2629L19.1022 9.92209L18.8833 9.30334C18.5563 8.37856 18.2291 7.45387 17.9016 6.52928L17.8664 6.43115H12.5216Z" fill="#B1060F" stroke="black" stroke-width="0.277125"/>
<path d="M12.5216 6.43115V14.0382L17.8803 28.2532C17.881 27.9274 17.8816 27.7515 17.8822 27.3791L17.8913 21.6394L18.3152 22.839C20.6752 29.5168 21.943 33.0971 21.9505 33.1046C21.9553 33.1096 22.3125 33.1312 22.7439 33.1526C24.0511 33.2174 25.6711 33.3563 26.9 33.5091C27.1845 33.5444 27.4294 33.5626 27.4442 33.5493C27.4542 33.5402 27.461 30.5477 27.4627 26.3263L22.1289 10.9919L22.1264 12.443L22.1158 18.4369L21.6227 17.0455C21.1408 15.686 20.8191 14.7768 18.8833 9.30334C18.5563 8.37856 18.2291 7.45387 17.9016 6.52928L17.8664 6.43115H12.5216Z" fill="url(#paint1_radial_12_175)"/>
<path d="M12.5217 6.43115L17.8913 21.6463V21.6394L18.3152 22.839C20.6752 29.5168 21.943 33.0971 21.9505 33.1046C21.9553 33.1096 22.3125 33.1312 22.7439 33.1526C24.0511 33.2174 25.6711 33.3563 26.9 33.5091C27.1831 33.5443 27.4266 33.5622 27.4438 33.5494L22.1156 18.4343V18.4369L21.6225 17.0455C21.1406 15.686 20.8189 14.7768 18.8831 9.30334C18.3625 7.83146 17.9208 6.58334 17.9014 6.52928L17.8663 6.43115H12.5217Z" fill="#E50914"/>
</g>
<defs>
<radialGradient id="paint0_radial_12_175" cx="0" cy="0" r="1" gradientUnits="userSpaceOnUse" gradientTransform="translate(19.7441 10.9612) scale(10.5242 10.5243)">
<stop/>
<stop offset="1" stop-opacity="0"/>
</radialGradient>
<radialGradient id="paint1_radial_12_175" cx="0" cy="0" r="1" gradientUnits="userSpaceOnUse" gradientTransform="translate(19.7441 10.9612) scale(10.5242 10.5243)">
<stop/>
<stop offset="1" stop-opacity="0"/>
</radialGradient>
<clipPath id="clip0_12_175">
<rect width="40" height="40" fill="white"/>
</clipPath>
</defs>
</svg>
