<svg width="40" height="40" viewBox="0 0 40 40" fill="none" xmlns="http://www.w3.org/2000/svg">
<g clip-path="url(#clip0_12_185)">
<path d="M15 35.5556C16.5341 35.5556 17.7778 34.3119 17.7778 32.7778C17.7778 31.2437 16.5341 30 15 30C13.4659 30 12.2222 31.2437 12.2222 32.7778C12.2222 34.3119 13.4659 35.5556 15 35.5556Z" fill="#333333"/>
<path d="M29.4444 35.5556C30.9786 35.5556 32.2222 34.3119 32.2222 32.7778C32.2222 31.2437 30.9786 30 29.4444 30C27.9103 30 26.6667 31.2437 26.6667 32.7778C26.6667 34.3119 27.9103 35.5556 29.4444 35.5556Z" fill="#333333"/>
<path d="M36.7778 7.09992C36.6743 6.96546 36.5413 6.85649 36.3892 6.78138C36.237 6.70626 36.0697 6.66699 35.9 6.66659H10.2333L9.73332 5.0777C9.6784 4.9071 9.58302 4.75231 9.45533 4.62655C9.32763 4.50079 9.17141 4.40779 8.99999 4.35548L4.44444 2.95548C4.30436 2.91243 4.15718 2.8974 4.01129 2.91124C3.8654 2.92507 3.72367 2.96751 3.59418 3.03612C3.33267 3.17469 3.13692 3.41147 3.04999 3.69436C2.96306 3.97726 2.99207 4.28311 3.13064 4.54462C3.2692 4.80613 3.50598 5.00188 3.78888 5.08881L7.77777 6.31103L12.8667 22.3888L11.0555 23.8777L10.9111 24.0221C10.4632 24.5408 10.2095 25.1989 10.1932 25.884C10.177 26.569 10.3994 27.2385 10.8222 27.7777C11.1251 28.146 11.5099 28.4383 11.9459 28.6312C12.382 28.8242 12.8571 28.9124 13.3333 28.8888H31.8778C32.1725 28.8888 32.4551 28.7717 32.6634 28.5634C32.8718 28.355 32.9889 28.0724 32.9889 27.7777C32.9889 27.483 32.8718 27.2004 32.6634 26.992C32.4551 26.7836 32.1725 26.6666 31.8778 26.6666H13.1555C13.0276 26.6622 12.9029 26.6249 12.7936 26.5583C12.6843 26.4917 12.594 26.398 12.5314 26.2863C12.4689 26.1746 12.4362 26.0487 12.4365 25.9206C12.4369 25.7926 12.4702 25.6669 12.5333 25.5555L15.2111 23.3333H32.3555C32.6094 23.3406 32.8581 23.2609 33.0602 23.1072C33.2624 22.9536 33.4058 22.7353 33.4667 22.4888L37.0222 8.04436C37.056 7.87872 37.0515 7.70754 37.0092 7.54388C36.9668 7.38022 36.8877 7.22837 36.7778 7.09992Z" fill="#333333"/>
</g>
<defs>
<clipPath id="clip0_12_185">
<rect width="40" height="40" fill="white"/>
</clipPath>
</defs>
</svg>
