<svg width="468" height="530" viewBox="0 0 468 530" fill="none" xmlns="http://www.w3.org/2000/svg">
<path d="M445.001 402.946L248.358 516.477C235.706 523.782 219.404 519.264 211.972 506.391L13.9 163.32C6.46825 150.448 10.7058 134.071 23.3583 126.766L220.001 13.2341C232.654 5.92915 248.955 10.4479 256.387 23.3201L454.466 366.403C457.126 371.009 458.295 376.075 458.094 380.994C457.789 389.821 453.126 398.255 445.001 402.946Z" fill="url(#paint0_linear_3_61)"/>
<path d="M445.001 402.945L295.689 489.151C260.864 460.385 241.616 416.407 253.175 396.357C261.65 381.659 280.226 390.929 301.286 373.213C311.261 364.807 316.38 354.909 319.765 343.057C324.341 327.162 325.771 307.757 331.674 283.861C335.467 268.495 344.768 230.831 360.712 204.016L454.459 366.391C457.119 370.998 458.289 376.064 458.083 381.001C457.795 389.832 453.137 398.248 445.001 402.945Z" fill="url(#paint1_linear_3_61)"/>
<path d="M393.245 432.827L248.358 516.477C235.706 523.782 219.422 519.269 211.99 506.396L13.9115 163.314C6.47973 150.441 10.7126 134.083 23.3651 126.778L134.617 62.5462C145.033 65.4915 155.688 69.822 166.125 76.0025C197.981 94.8304 212.503 122.419 240.262 176.815C273.71 242.349 265.584 253.013 290.09 298.604C300.167 317.368 310.171 331.603 319.765 343.057C352.203 381.606 380.196 388.133 391.827 427.489C392.339 429.24 392.817 431.012 393.245 432.827Z" fill="url(#paint2_linear_3_61)"/>
<path d="M312.236 120.052C247.644 148.878 170.319 125.747 130.877 64.69L220.001 13.2341C232.654 5.92915 248.955 10.4479 256.387 23.3201L312.236 120.052Z" fill="url(#paint3_linear_3_61)"/>
<path opacity="0.33" d="M167.466 429.278L72.826 265.356L183.317 295.984C192.871 298.642 198.656 308.662 196.181 318.265L167.466 429.278Z" fill="url(#paint4_linear_3_61)"/>
<path opacity="0.27" d="M251.048 514.925L248.37 516.471C235.717 523.776 219.415 519.257 211.984 506.385L13.9113 163.314C6.47952 150.441 10.717 134.064 23.3696 126.759L113.538 74.7008C120.652 79.2134 127.54 85.1955 133.28 93.0413C146.555 111.237 147.396 131.039 148.103 154.459C149.452 199.382 137.983 213.192 137.055 239.572C135.264 290.325 175.241 308.097 210.236 372.275C236.584 420.636 251.52 479.526 251.048 514.925Z" fill="url(#paint5_linear_3_61)"/>
<path opacity="0.53" d="M445.001 402.946L248.358 516.477C235.706 523.782 219.404 519.264 211.972 506.391L13.9 163.32C6.46825 150.448 10.7058 134.071 23.3584 126.766L220.001 13.2341C232.654 5.92915 248.955 10.4479 256.387 23.3201L454.466 366.403C457.126 371.009 458.295 376.075 458.094 380.994C457.789 389.821 453.126 398.255 445.001 402.946Z" fill="url(#paint6_linear_3_61)"/>
<path d="M226.625 64.0695L222.186 56.3808L216.649 59.5779L220.901 66.9434L218.756 68.1816L214.504 60.8162L207.264 64.996L205.931 62.6871L223.009 52.8271L228.781 62.8247L226.625 64.0695Z" fill="white"/>
<path d="M228.234 68.0355C227.994 67.6199 227.931 67.195 228.054 66.7541C228.167 66.3198 228.421 65.9732 228.806 65.7504C229.192 65.5277 229.613 65.4697 230.063 65.5945C230.507 65.7078 230.854 65.9689 231.094 66.3845C231.321 66.7771 231.373 67.2086 231.249 67.6494C231.126 68.0903 230.872 68.4369 230.486 68.6597C230.1 68.8824 229.68 68.9404 229.241 68.809C228.808 68.6892 228.468 68.4396 228.234 68.0355ZM213.196 75.2708L225.395 68.2279L226.641 70.3867L214.443 77.4296L213.196 75.2708Z" fill="white"/>
<path d="M232.431 79.6815C233.271 81.1361 233.491 82.5642 233.101 83.9591C232.699 85.3607 231.739 86.5004 230.195 87.3914L222.706 91.7154L221.459 89.5566L228.824 85.3046C229.811 84.7346 230.423 84.012 230.654 83.155C230.886 82.2979 230.718 81.3787 230.165 80.4205C229.545 79.3469 228.716 78.671 227.671 78.3814C226.627 78.0918 225.43 78.3517 224.057 79.1444L217.6 82.8722L216.354 80.7134L228.541 73.677L229.788 75.8359L228.029 76.8514C229.92 76.9295 231.392 77.8805 232.431 79.6815Z" fill="white"/>
<path d="M242.552 97.9438L243.798 100.103L231.599 107.146L230.353 104.987L232.452 103.775C230.221 103.631 228.509 102.526 227.329 100.483C226.329 98.7513 226.094 96.9018 226.624 94.9639C227.166 93.0195 228.322 91.5363 230.115 90.5011C231.907 89.466 233.77 89.2065 235.725 89.7096C237.679 90.2126 239.145 91.3366 240.152 93.0798C241.338 95.1347 241.432 97.1584 240.441 99.1624L242.552 97.9438ZM229.543 99.5743C230.269 100.833 231.296 101.641 232.622 101.999C233.948 102.357 235.228 102.188 236.465 101.474C237.701 100.759 238.487 99.7361 238.841 98.4085C239.194 97.0809 239.007 95.788 238.281 94.5296C237.561 93.2828 236.541 92.4862 235.215 92.1282C233.888 91.7703 232.609 91.9393 231.372 92.6534C230.135 93.3676 229.349 94.3909 228.996 95.7185C228.643 97.046 228.823 98.3275 229.543 99.5743Z" fill="white"/>
<path d="M236.54 116.437C235.461 114.567 235.174 112.655 235.686 110.712C236.192 108.758 237.359 107.268 239.186 106.213C241.013 105.158 242.893 104.904 244.832 105.432C246.771 105.959 248.283 107.164 249.363 109.034C250.07 110.258 250.419 111.518 250.407 112.834C250.395 114.149 250.043 115.322 249.34 116.359L247.273 115.136C247.74 114.451 247.982 113.665 247.999 112.777C248.016 111.89 247.782 111.04 247.309 110.22C246.589 108.973 245.576 108.188 244.261 107.824C242.946 107.459 241.681 107.651 240.444 108.365C239.229 109.066 238.437 110.078 238.088 111.388C237.74 112.697 237.92 113.979 238.64 115.225C239.12 116.057 239.739 116.684 240.505 117.119C241.271 117.555 242.074 117.768 242.921 117.741L242.937 120.179C241.666 120.205 240.466 119.882 239.314 119.223C238.168 118.576 237.234 117.638 236.54 116.437Z" fill="white"/>
<path d="M256.355 116.742C256.115 116.327 256.051 115.902 256.175 115.461C256.288 115.026 256.541 114.68 256.927 114.457C257.313 114.234 257.733 114.176 258.184 114.301C258.627 114.414 258.975 114.676 259.215 115.091C259.441 115.484 259.494 115.915 259.37 116.356C259.246 116.797 258.993 117.144 258.607 117.366C258.221 117.589 257.801 117.647 257.362 117.516C256.923 117.384 256.582 117.135 256.355 116.742ZM241.311 123.966L253.509 116.923L254.756 119.082L242.557 126.125L241.311 123.966Z" fill="white"/>
<path d="M163.172 98.7186L161.243 99.8324L159.755 96.9665L158.493 99.8653L156.447 98.7067L158.121 95.8931L154.848 95.936L154.887 93.6197L158.009 93.9418L156.284 91.2432L158.213 90.1294L159.665 92.9853L160.981 90.1015L163.007 91.2254L161.333 94.039L164.606 93.9961L164.587 96.3471L161.412 96.01L163.172 98.7186Z" fill="white"/>
<path d="M171.49 113.126L169.561 114.24L168.073 111.374L166.812 114.273L164.766 113.114L166.44 110.301L163.166 110.344L163.206 108.027L166.327 108.35L164.602 105.651L166.532 104.537L167.984 107.393L169.299 104.509L171.325 105.633L169.651 108.447L172.925 108.404L172.905 110.755L169.73 110.418L171.49 113.126Z" fill="white"/>
<path d="M179.815 127.545L177.886 128.659L176.398 125.793L175.136 128.692L173.091 127.533L174.765 124.72L171.491 124.763L171.531 122.446L174.652 122.769L172.927 120.07L174.856 118.956L176.309 121.812L177.624 118.928L179.65 120.052L177.976 122.866L181.25 122.823L181.23 125.174L178.055 124.837L179.815 127.545Z" fill="white"/>
<path d="M188.14 141.965L186.211 143.079L184.723 140.213L183.461 143.111L181.416 141.953L183.09 139.139L179.816 139.182L179.856 136.866L182.977 137.188L181.252 134.489L183.181 133.376L184.634 136.231L185.949 133.348L187.975 134.472L186.301 137.285L189.575 137.242L189.555 139.593L186.38 139.256L188.14 141.965Z" fill="white"/>
<path d="M202.231 166.37L200.302 167.484L198.813 164.618L197.552 167.517L195.506 166.358L197.18 163.544L193.906 163.587L193.946 161.271L197.067 161.593L195.343 158.894L197.272 157.781L198.724 160.637L200.04 157.753L202.065 158.877L200.391 161.69L203.665 161.647L203.645 163.998L200.47 163.661L202.231 166.37Z" fill="white"/>
<path d="M210.556 180.789L208.627 181.903L207.138 179.037L205.877 181.936L203.831 180.777L205.505 177.964L202.231 178.007L202.271 175.69L205.392 176.012L203.668 173.314L205.597 172.2L207.049 175.056L208.364 172.172L210.39 173.296L208.716 176.11L211.99 176.067L211.97 178.418L208.795 178.08L210.556 180.789Z" fill="white"/>
<path d="M218.881 195.209L216.952 196.322L215.463 193.457L214.202 196.355L212.156 195.197L213.83 192.383L210.556 192.426L210.596 190.11L213.717 190.432L211.993 187.733L213.922 186.619L215.374 189.475L216.69 186.591L218.715 187.715L217.041 190.529L220.315 190.486L220.296 192.837L217.12 192.5L218.881 195.209Z" fill="white"/>
<path d="M227.199 209.616L225.27 210.73L223.782 207.864L222.52 210.763L220.474 209.604L222.148 206.791L218.875 206.834L218.914 204.517L222.035 204.839L220.311 202.141L222.24 201.027L223.692 203.883L225.008 200.999L227.034 202.123L225.36 204.937L228.633 204.894L228.614 207.245L225.438 206.908L227.199 209.616Z" fill="white"/>
<path d="M241.296 234.033L239.367 235.147L237.879 232.281L236.617 235.18L234.571 234.021L236.245 231.208L232.972 231.251L233.011 228.934L236.133 229.256L234.408 226.558L236.337 225.444L237.789 228.3L239.105 225.416L241.131 226.54L239.457 229.354L242.73 229.311L242.711 231.662L239.536 231.325L241.296 234.033Z" fill="white"/>
<path d="M249.614 248.441L247.685 249.555L246.197 246.689L244.936 249.588L242.89 248.429L244.564 245.615L241.29 245.658L241.33 243.342L244.451 243.664L242.726 240.965L244.655 239.852L246.108 242.708L247.423 239.824L249.449 240.948L247.775 243.761L251.049 243.718L251.029 246.069L247.854 245.732L249.614 248.441Z" fill="white"/>
<path d="M257.939 262.86L256.01 263.973L254.522 261.108L253.26 264.006L251.214 262.848L252.888 260.034L249.615 260.077L249.654 257.761L252.776 258.083L251.051 255.384L252.98 254.271L254.432 257.126L255.748 254.243L257.774 255.367L256.1 258.18L259.373 258.137L259.354 260.488L256.179 260.151L257.939 262.86Z" fill="white"/>
<path d="M266.264 277.279L264.335 278.393L262.847 275.527L261.585 278.426L259.54 277.267L261.214 274.454L257.94 274.497L257.979 272.18L261.101 272.502L259.376 269.804L261.305 268.69L262.757 271.546L264.073 268.662L266.099 269.786L264.425 272.6L267.698 272.557L267.679 274.908L264.504 274.571L266.264 277.279Z" fill="white"/>
<path d="M256.587 303.077L258.879 301.753L270.879 304.954C274.05 305.832 276.35 305.859 277.78 305.034C278.971 304.346 279.677 303.446 279.92 302.32C280.163 301.195 279.972 300.104 279.359 299.042C278.186 297.01 276.391 296.076 273.969 296.259L273.967 293.058C275.727 292.935 277.306 293.285 278.703 294.08C280.099 294.874 281.218 295.999 282.058 297.453C283.097 299.254 283.414 301.165 283.023 303.161C282.62 305.163 281.441 306.737 279.467 307.877C277.333 309.109 274.267 309.17 270.268 308.062L261.724 305.684L267.342 315.416L264.619 316.988L256.587 303.077Z" fill="white"/>
<path d="M284.54 322.665C285.18 324.482 285.267 326.232 284.778 327.9C284.295 329.579 283.211 330.898 281.543 331.861C279.489 333.047 277.453 333.268 275.435 332.525C273.417 331.781 271.82 330.378 270.634 328.323C269.687 326.684 269.211 325.02 269.215 323.324C269.219 321.628 269.755 320.119 270.844 318.782L273.626 320.377C272.041 322.139 271.965 324.261 273.398 326.743C274.164 328.071 275.131 328.959 276.31 329.402C277.478 329.852 278.682 329.711 279.908 329.003C281.133 328.296 281.858 327.323 282.063 326.081C282.269 324.838 281.994 323.55 281.228 322.222L280.801 321.484L281.866 319.345L291.355 320.501L285.836 310.942L288.468 309.422L295.92 322.329L293.428 323.752L284.54 322.665Z" fill="white"/>
<path d="M294.204 352.874L291.571 354.394L290.065 351.785L286.048 354.104L284.395 351.241L288.412 348.922L282.073 337.943L284.706 336.423L303.66 335.762L305.433 338.833L286.479 339.494L291.038 347.39L297.018 343.938L298.671 346.801L292.691 350.253L294.204 352.874Z" fill="white"/>
<path d="M306.948 360.508C308.121 362.54 308.524 364.601 308.151 366.679C307.784 368.769 306.567 370.41 304.491 371.609C302.437 372.795 300.401 373.016 298.383 372.272C296.365 371.529 294.768 370.126 293.582 368.071C292.636 366.432 292.175 364.743 292.2 363.004C292.225 361.266 292.829 359.717 294.011 358.357L296.772 359.995C295.906 360.88 295.454 361.88 295.394 363.007C295.334 364.135 295.642 365.297 296.328 366.486C297.108 367.836 298.082 368.737 299.26 369.18C300.439 369.623 301.632 369.488 302.858 368.78C304.083 368.073 304.808 367.1 305.014 365.858C305.219 364.616 304.951 363.339 304.191 362.023L300.679 355.939L312.098 350.377L318.91 362.176L316.278 363.695L310.972 354.506L305.135 357.368L306.948 360.508Z" fill="white"/>
<path d="M83.0555 135.954C82.329 134.695 82.1376 133.421 82.4814 132.129C82.8252 130.838 83.5906 129.857 84.7821 129.169C85.9736 128.481 87.2054 128.309 88.4957 128.657C89.786 129.005 90.7944 129.808 91.5209 131.066C91.9608 131.828 92.1791 132.626 92.1939 133.464C92.1974 134.308 92.0074 135.08 91.6126 135.785L90.5147 135.141C90.8286 134.637 90.9805 134.087 90.9795 133.457C90.9786 132.826 90.8035 132.235 90.4769 131.669C89.9237 130.711 89.1707 130.114 88.216 129.85C87.268 129.597 86.3277 129.724 85.4199 130.248C84.5235 130.765 83.9365 131.505 83.6883 132.464C83.4335 133.411 83.5803 134.373 84.1336 135.331C84.4602 135.897 84.8963 136.338 85.4305 136.661C85.9761 136.977 86.5279 137.12 87.1104 137.107L87.1303 138.373C86.3289 138.374 85.5544 138.159 84.8246 137.734C84.0949 137.309 83.4954 136.716 83.0555 135.954Z" fill="white"/>
<path d="M94.5813 142.106L95.1745 143.134L89.3419 146.501L88.7487 145.474L89.7473 144.897C88.6757 144.823 87.8633 144.307 87.2967 143.326C86.8168 142.495 86.7053 141.62 86.9668 140.684C87.2169 139.754 87.7766 139.047 88.639 138.549C89.49 138.057 90.3829 137.927 91.3243 138.168C92.2543 138.416 92.9672 138.944 93.4471 139.775C94.0137 140.756 94.0611 141.729 93.5827 142.683L94.5813 142.106ZM88.3687 142.876C88.7152 143.476 89.2128 143.867 89.8366 144.03C90.467 144.205 91.0796 144.112 91.6697 143.772C92.2598 143.431 92.6457 142.947 92.8096 142.313C92.9735 141.68 92.8911 141.066 92.5446 140.465C92.2046 139.876 91.7071 139.486 91.0833 139.323C90.4529 139.148 89.8403 139.24 89.2502 139.581C88.6601 139.922 88.2741 140.406 88.1103 141.04C87.935 141.68 88.0287 142.287 88.3687 142.876Z" fill="white"/>
<path d="M95.6983 146.295C96.6178 146.21 97.3409 146.624 97.8541 147.513L96.7988 148.122C96.5282 147.601 96.1454 147.253 95.6484 147.047C95.1581 146.853 94.5862 146.937 93.9508 147.304L90.8642 149.086L90.271 148.058L96.1037 144.691L96.6969 145.718L95.6983 146.295Z" fill="white"/>
<path d="M103.311 151.828L103.904 152.855L95.7453 157.566L95.1521 156.538L96.1507 155.962C95.0791 155.888 94.2667 155.372 93.7001 154.39C93.2202 153.559 93.1087 152.685 93.3702 151.749C93.6203 150.819 94.1799 150.111 95.0424 149.613C95.8934 149.122 96.7863 148.991 97.7276 149.233C98.6577 149.481 99.3706 150.008 99.8505 150.84C100.417 151.821 100.465 152.794 99.9861 153.747L103.311 151.828ZM94.7674 153.959C95.114 154.559 95.6115 154.949 96.2353 155.113C96.8657 155.287 97.4783 155.195 98.0684 154.855C98.6585 154.514 99.0445 154.029 99.2083 153.396C99.3722 152.763 99.2899 152.148 98.9433 151.548C98.6033 150.959 98.1058 150.569 97.482 150.406C96.8516 150.231 96.239 150.323 95.6489 150.664C95.0588 151.005 94.6729 151.489 94.509 152.123C94.3271 152.751 94.4208 153.359 94.7674 153.959Z" fill="white"/>
<path d="M109.55 162.634L110.183 163.73L102.024 168.441L101.391 167.344L105.067 165.221L102.741 161.192L99.0646 163.315L98.4247 162.207L106.584 157.496L107.223 158.605L103.762 160.603L106.089 164.632L109.55 162.634Z" fill="white"/>
<path d="M106.614 174.688C105.671 174.417 104.949 173.848 104.449 172.982C103.949 172.116 103.818 171.207 104.055 170.255C104.298 169.314 104.844 168.583 105.707 168.085C106.569 167.587 107.469 167.468 108.412 167.739C109.349 167.998 110.07 168.567 110.577 169.444C111.083 170.322 111.208 171.219 110.971 172.172C110.735 173.124 110.182 173.844 109.319 174.342C108.457 174.84 107.557 174.959 106.614 174.688ZM105.436 172.412C105.776 173.001 106.263 173.398 106.886 173.561C107.517 173.736 108.118 173.65 108.708 173.309C109.298 172.969 109.684 172.484 109.837 171.857C110.001 171.224 109.907 170.616 109.567 170.027C109.227 169.439 108.754 169.065 108.124 168.89C107.493 168.716 106.881 168.808 106.302 169.142C105.712 169.482 105.326 169.967 105.173 170.594C105.009 171.227 105.096 171.823 105.436 172.412Z" fill="white"/>
<path d="M107.11 177.249L115.62 172.336L116.213 173.363L107.703 178.277L107.11 177.249Z" fill="white"/>
<path d="M119.608 180.054L120.201 181.082L112.042 185.792L111.449 184.765L112.447 184.188C111.376 184.114 110.563 183.598 109.997 182.617C109.517 181.786 109.405 180.911 109.667 179.975C109.917 179.046 110.477 178.338 111.339 177.84C112.19 177.349 113.083 177.218 114.024 177.459C114.954 177.708 115.667 178.235 116.147 179.066C116.714 180.047 116.761 181.021 116.283 181.974L119.608 180.054ZM111.057 182.174C111.404 182.774 111.901 183.164 112.525 183.328C113.156 183.502 113.768 183.41 114.358 183.07C114.948 182.729 115.334 182.244 115.498 181.611C115.662 180.978 115.58 180.363 115.233 179.763C114.893 179.174 114.396 178.784 113.772 178.621C113.141 178.446 112.529 178.538 111.939 178.879C111.349 179.22 110.963 179.704 110.799 180.338C110.624 180.977 110.717 181.585 111.057 182.174Z" fill="white"/>
<path d="M115.819 186.675C115.357 187.08 115.089 187.558 115.025 188.103C114.961 188.648 115.087 189.206 115.414 189.772C115.867 190.557 116.477 190.959 117.251 190.989L117.27 192.148C116.063 192.075 115.12 191.465 114.447 190.299C113.901 189.352 113.744 188.427 113.994 187.497C114.233 186.574 114.804 185.86 115.689 185.349C116.563 184.844 117.467 184.707 118.379 184.95C119.291 185.193 120.02 185.773 120.546 186.685C121.046 187.551 121.153 188.444 120.865 189.334C120.583 190.235 120.01 190.92 119.159 191.411C119.012 191.496 118.858 191.57 118.685 191.639L115.819 186.675ZM119.582 187.242C119.262 186.688 118.836 186.318 118.323 186.137C117.81 185.956 117.268 185.961 116.711 186.175L118.997 190.135C119.5 189.721 119.793 189.26 119.87 188.738C119.941 188.205 119.855 187.716 119.582 187.242Z" fill="white"/>
<path d="M122.379 192.508C123.299 192.423 124.022 192.837 124.535 193.726L123.48 194.335C123.209 193.814 122.827 193.466 122.33 193.26C121.839 193.066 121.267 193.15 120.632 193.517L117.545 195.299L116.952 194.271L122.785 190.904L123.378 191.931L122.379 192.508Z" fill="white"/>
<path d="M128.58 200.626C128.98 201.319 129.091 202.009 128.899 202.674C128.708 203.338 128.238 203.887 127.5 204.313L123.926 206.376L123.333 205.349L126.851 203.318C127.327 203.043 127.617 202.706 127.725 202.29C127.832 201.874 127.75 201.444 127.491 200.993C127.191 200.474 126.792 200.15 126.294 200.022C125.796 199.894 125.226 200.007 124.568 200.387L121.482 202.169L120.889 201.142L126.721 197.774L127.314 198.802L126.475 199.286C127.384 199.316 128.087 199.772 128.58 200.626Z" fill="white"/>
<path d="M133.413 209.365L134.006 210.392L128.174 213.76L127.58 212.732L128.579 212.156C127.507 212.082 126.695 211.566 126.129 210.584C125.649 209.753 125.537 208.879 125.799 207.943C126.049 207.013 126.608 206.305 127.471 205.807C128.322 205.316 129.215 205.185 130.156 205.427C131.086 205.675 131.799 206.202 132.279 207.033C132.845 208.015 132.893 208.988 132.415 209.941L133.413 209.365ZM127.2 210.135C127.547 210.735 128.045 211.125 128.668 211.288C129.299 211.463 129.911 211.371 130.501 211.03C131.092 210.69 131.478 210.205 131.641 209.572C131.805 208.938 131.723 208.324 131.376 207.724C131.036 207.135 130.539 206.745 129.915 206.582C129.285 206.407 128.672 206.499 128.082 206.84C127.492 207.18 127.106 207.665 126.942 208.298C126.767 208.938 126.86 209.546 127.2 210.135Z" fill="white"/>
<path d="M138.771 218.278C139.158 218.948 139.249 219.603 139.069 220.261C138.889 220.919 138.423 221.45 137.697 221.869L134.077 223.959L133.484 222.931L137.07 220.861C137.524 220.599 137.809 220.28 137.907 219.9C138.017 219.514 137.962 219.13 137.735 218.738C137.482 218.299 137.128 218.026 136.691 217.924C136.254 217.823 135.727 217.958 135.125 218.305L131.88 220.179L131.286 219.151L134.872 217.081C135.326 216.819 135.611 216.5 135.723 216.143C135.839 215.768 135.791 215.396 135.564 215.004C135.311 214.565 134.957 214.292 134.495 214.174C134.033 214.056 133.504 214.161 132.914 214.502L129.669 216.376L129.076 215.348L134.908 211.981L135.501 213.008L134.718 213.46C135.576 213.504 136.222 213.916 136.669 214.689C137.129 215.486 137.133 216.253 136.688 217.002C137.602 217.013 138.291 217.447 138.771 218.278Z" fill="white"/>
<path d="M137.775 224.703C137.313 225.108 137.044 225.586 136.981 226.131C136.917 226.676 137.043 227.234 137.369 227.8C137.822 228.585 138.433 228.987 139.207 229.017L139.225 230.176C138.018 230.103 137.076 229.493 136.403 228.327C135.856 227.38 135.7 226.455 135.95 225.525C136.189 224.602 136.76 223.888 137.645 223.377C138.519 222.872 139.423 222.735 140.335 222.978C141.247 223.221 141.975 223.801 142.502 224.713C143.002 225.579 143.108 226.472 142.82 227.362C142.539 228.263 141.966 228.948 141.115 229.439C140.967 229.524 140.813 229.598 140.641 229.667L137.775 224.703ZM141.537 225.27C141.217 224.716 140.792 224.346 140.279 224.165C139.766 223.984 139.224 223.989 138.667 224.203L140.946 228.151C141.449 227.738 141.742 227.276 141.819 226.754C141.903 226.244 141.81 225.744 141.537 225.27Z" fill="white"/>
<path d="M73.652 146.37L75.0984 148.875L62.6161 156.082L61.5163 154.177L66.0139 144.33L58.3769 148.74L56.9306 146.234L69.4129 139.028L70.5127 140.933L66.0492 150.76L73.652 146.37Z" fill="white"/>
<path d="M69.4869 165.415C68.0392 165.004 66.9321 164.134 66.159 162.795C65.3858 161.456 65.1798 160.051 65.5544 158.603C65.929 157.156 66.7744 156.052 68.1021 155.285C69.4184 154.525 70.7971 154.345 72.2494 154.738C73.6905 155.137 74.7976 156.007 75.5774 157.357C76.3506 158.697 76.5565 160.102 76.182 161.549C75.814 163.008 74.9686 164.112 73.6409 164.879C72.3133 165.645 70.9279 165.814 69.4869 165.415ZM68.0782 159.332C67.8795 160.062 67.9925 160.782 68.3991 161.486C68.8057 162.191 69.3726 162.648 70.1044 162.841C70.8429 163.046 71.5663 162.936 72.2812 162.524C72.9961 162.111 73.4529 161.539 73.6335 160.804C73.8255 160.062 73.7125 159.342 73.3126 158.65C72.9127 157.957 72.3458 157.499 71.6073 157.294C70.8754 157.101 70.152 157.211 69.4485 157.617C68.7336 158.03 68.2768 158.602 68.0782 159.332Z" fill="white"/>
<path d="M85.0775 173.838C85.6774 174.877 85.8282 175.898 85.5186 176.908C85.2091 177.918 84.5039 178.741 83.3805 179.389L77.8883 182.56L76.5352 180.217L81.8686 177.138C82.4019 176.83 82.7418 176.449 82.8835 176.013C83.0253 175.577 82.9528 175.111 82.6796 174.638C82.373 174.107 81.9628 173.789 81.4377 173.692C80.9126 173.595 80.3447 173.738 79.6866 174.118L74.6709 177.014L73.3246 174.682L78.6579 171.603C79.1912 171.295 79.5311 170.914 79.6729 170.478C79.8146 170.042 79.7422 169.576 79.4689 169.103C79.1689 168.583 78.7588 168.266 78.227 168.157C77.7066 168.042 77.1207 168.18 76.4626 168.56L71.4469 171.456L70.0939 169.112L79.0131 163.963L80.3661 166.307L79.4243 166.85C80.5319 166.934 81.4156 167.548 82.0688 168.679C82.7087 169.787 82.7574 170.868 82.2129 171.89C83.4513 171.991 84.391 172.649 85.0775 173.838Z" fill="white"/>
<path d="M91.9397 186.3L93.2928 188.644L84.3736 193.793L83.0205 191.45L84.0758 190.84C82.8068 190.634 81.7977 189.908 81.0646 188.638C80.3647 187.426 80.2187 186.125 80.6266 184.735C81.0345 183.345 81.9 182.276 83.2277 181.509C84.544 180.75 85.9027 180.535 87.3217 180.87C88.7294 181.211 89.7832 181.988 90.483 183.201C91.2162 184.471 91.3516 185.701 90.8844 186.909L91.9397 186.3ZM83.183 185.599C82.9911 186.341 83.0994 187.079 83.5193 187.806C83.9392 188.533 84.5241 188.996 85.2626 189.201C86.0011 189.406 86.7539 189.294 87.4915 188.868C88.229 188.443 88.6905 187.853 88.8825 187.111C89.0744 186.369 88.9662 185.631 88.5462 184.904C88.1263 184.176 87.5414 183.714 86.8029 183.509C86.0644 183.304 85.3183 183.427 84.5921 183.846C83.8545 184.272 83.3817 184.869 83.183 185.599Z" fill="white"/>
<path d="M97.6816 195.669C98.2548 196.662 98.399 197.671 98.1254 198.691C97.8405 199.718 97.1307 200.559 95.9732 201.227L90.5037 204.385L89.1507 202.041L94.3365 199.047C94.9266 198.706 95.2872 198.283 95.4183 197.776C95.5494 197.269 95.455 196.739 95.1417 196.196C94.7951 195.596 94.3336 195.216 93.7458 195.063C93.1648 194.921 92.5134 195.051 91.7758 195.477L86.9644 198.255L85.6114 195.911L94.5306 190.762L95.8836 193.105L94.8851 193.682C96.04 193.769 96.9684 194.434 97.6816 195.669Z" fill="white"/>
<path d="M113.99 216.238L101.508 223.445L100.075 220.963L108.166 216.291L100.312 216.054L100.134 215.772L103.839 208.876L95.7711 213.535L94.3247 211.029L106.807 203.823L108.293 206.397L104.504 213.434L112.486 213.659L113.979 216.245L113.99 216.238Z" fill="white"/>
<path d="M115.695 227.445L117.048 229.789L108.129 234.938L106.776 232.595L107.831 231.985C106.562 231.779 105.553 231.053 104.82 229.783C104.12 228.571 103.974 227.27 104.382 225.88C104.79 224.49 105.655 223.421 106.983 222.654C108.299 221.894 109.658 221.68 111.077 222.015C112.484 222.356 113.538 223.133 114.238 224.346C114.971 225.615 115.107 226.846 114.639 228.054L115.695 227.445ZM106.938 226.744C106.746 227.486 106.854 228.224 107.274 228.951C107.694 229.678 108.279 230.141 109.018 230.346C109.756 230.55 110.509 230.439 111.246 230.013C111.984 229.587 112.446 228.998 112.637 228.256C112.829 227.514 112.721 226.776 112.301 226.049C111.881 225.321 111.296 224.859 110.558 224.654C109.819 224.449 109.073 224.572 108.347 224.991C107.609 225.417 107.13 226.002 106.938 226.744Z" fill="white"/>
<path d="M121.43 236.802C122.003 237.795 122.147 238.805 121.874 239.825C121.589 240.851 120.879 241.692 119.722 242.36L114.252 245.518L112.899 243.174L118.085 240.18C118.675 239.84 119.035 239.416 119.167 238.909C119.298 238.403 119.203 237.872 118.89 237.33C118.543 236.729 118.082 236.349 117.494 236.196C116.913 236.054 116.262 236.184 115.524 236.61L110.713 239.388L109.36 237.044L118.279 231.895L119.632 234.238L118.633 234.815C119.795 234.914 120.723 235.578 121.43 236.802Z" fill="white"/>
<path d="M119.147 249.018L121.474 253.047L119.318 254.292L115.185 247.134L116.717 246.25L124.154 247.051L122.048 243.403L124.204 242.158L128.13 248.958L126.598 249.842L119.147 249.018Z" fill="white"/>
<path d="M125.569 262.551C124.121 262.14 123.014 261.271 122.241 259.931C121.467 258.592 121.262 257.187 121.636 255.74C122.011 254.292 122.856 253.188 124.184 252.422C125.5 251.662 126.879 251.481 128.331 251.874C129.772 252.274 130.879 253.143 131.659 254.494C132.432 255.833 132.638 257.238 132.264 258.686C131.896 260.145 131.05 261.249 129.723 262.015C128.395 262.782 127.01 262.95 125.569 262.551ZM124.167 256.48C123.968 257.21 124.081 257.93 124.487 258.634C124.894 259.338 125.461 259.796 126.193 259.989C126.931 260.194 127.655 260.084 128.37 259.672C129.084 259.259 129.541 258.687 129.722 257.952C129.914 257.21 129.801 256.49 129.401 255.797C129.001 255.105 128.434 254.647 127.696 254.442C126.964 254.249 126.24 254.359 125.537 254.765C124.815 255.166 124.359 255.738 124.167 256.48Z" fill="white"/>
<path d="M131.787 273.322C130.34 272.911 129.232 272.042 128.459 270.703C127.686 269.363 127.48 267.958 127.855 266.511C128.229 265.063 129.075 263.959 130.402 263.193C131.719 262.433 133.097 262.252 134.55 262.645C135.991 263.045 137.098 263.914 137.878 265.265C138.651 266.604 138.857 268.009 138.482 269.457C138.114 270.916 137.269 272.02 135.941 272.786C134.614 273.553 133.235 273.733 131.787 273.322ZM130.385 267.251C130.187 267.981 130.3 268.701 130.706 269.405C131.113 270.11 131.68 270.567 132.411 270.76C133.15 270.965 133.873 270.855 134.588 270.443C135.303 270.03 135.76 269.458 135.941 268.723C136.133 267.981 136.02 267.261 135.62 266.569C135.22 265.876 134.653 265.418 133.914 265.213C133.182 265.02 132.459 265.13 131.755 265.536C131.041 265.949 130.584 266.521 130.385 267.251Z" fill="white"/>
<path d="M141.164 275.097C141.858 274.989 142.496 275.098 143.066 275.43C143.636 275.763 144.111 276.244 144.464 276.855L141.899 278.336C141.565 277.574 141.063 277.018 140.362 276.669C139.661 276.319 138.899 276.389 138.037 276.887L133.77 279.351L132.417 277.007L141.336 271.858L142.689 274.201L141.157 275.086L141.164 275.097Z" fill="white"/>
<path d="M229.732 387.28L231.959 391.136L230.937 391.725L228.078 386.773L236.237 382.062L239.063 386.957L238.042 387.547L235.849 383.748L233.341 385.196L235.36 388.694L234.35 389.277L232.331 385.779L229.732 387.28Z" fill="white"/>
<path d="M234.61 398.086L233.91 396.874L235.151 393.94L231.99 393.549L231.29 392.337L235.599 392.882L237.192 389.114L237.898 390.338L236.758 393.028L239.664 393.398L240.364 394.61L236.306 394.105L234.61 398.086Z" fill="white"/>
<path d="M243.036 398.87C243.516 399.701 243.627 400.576 243.366 401.512C243.116 402.441 242.556 403.149 241.694 403.647C240.843 404.138 239.95 404.269 239.008 404.028C238.078 403.779 237.365 403.252 236.885 402.421C236.319 401.44 236.271 400.466 236.75 399.513L233.414 401.439L232.82 400.412L240.979 395.701L241.573 396.729L240.574 397.305C241.65 397.361 242.469 397.889 243.036 398.87ZM237.811 401.717C238.151 402.306 238.641 402.685 239.272 402.859C239.902 403.034 240.515 402.942 241.105 402.601C241.695 402.261 242.081 401.776 242.245 401.143C242.409 400.51 242.327 399.895 241.987 399.306C241.64 398.706 241.142 398.316 240.519 398.153C239.888 397.978 239.276 398.07 238.686 398.411C238.095 398.751 237.71 399.236 237.546 399.869C237.364 400.498 237.464 401.117 237.811 401.717Z" fill="white"/>
<path d="M246.69 403.102C246.577 402.906 246.545 402.694 246.596 402.495C246.648 402.296 246.778 402.128 246.959 402.023C247.141 401.918 247.351 401.889 247.561 401.938C247.77 401.986 247.938 402.12 248.052 402.316C248.158 402.501 248.183 402.702 248.127 402.919C248.071 403.136 247.946 403.286 247.753 403.397C247.56 403.508 247.361 403.531 247.163 403.476C246.965 403.421 246.797 403.287 246.69 403.102ZM239.502 406.56L245.335 403.192L245.928 404.22L240.095 407.587L239.502 406.56Z" fill="white"/>
<path d="M246.447 407.399C247.367 407.315 248.09 407.728 248.603 408.617L247.548 409.227C247.277 408.706 246.894 408.357 246.397 408.151C245.907 407.957 245.335 408.041 244.7 408.408L241.613 410.19L241.02 409.163L246.852 405.795L247.446 406.823L246.447 407.399Z" fill="white"/>
<path d="M251.535 413.958L252.175 415.066L244.591 416.213C243.786 416.339 243.069 416.276 242.468 416.022C241.868 415.768 241.403 415.329 241.097 414.721L242.039 414.177C242.402 414.937 243.105 415.239 244.15 415.082L244.432 415.073L248.749 409.133L249.389 410.241L246.058 414.796L251.535 413.958Z" fill="white"/>
<path d="M258.652 420.886C259.305 422.017 259.448 423.182 259.098 424.384C258.748 425.586 257.986 426.519 256.851 427.174C255.705 427.836 254.527 428.024 253.311 427.725C252.083 427.433 251.157 426.721 250.504 425.59L248.638 422.357L256.797 417.647L258.663 420.879L258.652 420.886ZM251.514 425.007C252.001 425.849 252.696 426.372 253.588 426.58C254.48 426.789 255.359 426.635 256.233 426.13C257.107 425.626 257.68 424.941 257.945 424.064C258.211 423.188 258.112 422.336 257.619 421.482L256.386 419.346L250.281 422.871L251.514 425.007Z" fill="white"/>
<path d="M262.133 432.315L262.726 433.342L256.894 436.709L256.301 435.682L257.299 435.105C256.228 435.031 255.415 434.515 254.849 433.534C254.369 432.703 254.257 431.828 254.519 430.892C254.769 429.963 255.328 429.255 256.191 428.757C257.042 428.266 257.935 428.135 258.876 428.377C259.806 428.625 260.519 429.152 260.999 429.983C261.566 430.964 261.613 431.938 261.135 432.891L262.133 432.315ZM255.927 433.096C256.274 433.696 256.771 434.086 257.395 434.25C258.026 434.424 258.638 434.332 259.228 433.992C259.818 433.651 260.204 433.167 260.368 432.533C260.532 431.9 260.45 431.285 260.103 430.685C259.763 430.096 259.266 429.706 258.642 429.543C258.011 429.368 257.399 429.46 256.809 429.801C256.219 430.142 255.833 430.626 255.669 431.26C255.487 431.888 255.581 432.496 255.927 433.096Z" fill="white"/>
<path d="M264.523 438.707L263.61 437.126L260.455 438.947C260.172 439.111 260.001 439.287 259.942 439.474C259.884 439.662 259.928 439.868 260.068 440.11C260.207 440.352 260.374 440.641 260.585 440.981L259.678 441.505C259.044 440.67 258.732 439.973 258.753 439.406C258.774 438.84 259.142 438.351 259.869 437.931L263.023 436.11L262.343 434.932L263.319 434.369L263.999 435.546L265.327 434.78L266.226 435.631L264.592 436.574L265.506 438.156L264.53 438.719L264.523 438.707Z" fill="white"/>
<path d="M263.082 441.741C262.62 442.146 262.351 442.625 262.288 443.169C262.224 443.714 262.35 444.273 262.676 444.838C263.13 445.623 263.74 446.025 264.514 446.056L264.532 447.215C263.325 447.142 262.383 446.532 261.71 445.366C261.163 444.419 261.007 443.493 261.257 442.564C261.496 441.641 262.067 440.926 262.952 440.415C263.826 439.911 264.73 439.774 265.642 440.017C266.554 440.26 267.282 440.84 267.809 441.752C268.309 442.618 268.416 443.51 268.127 444.4C267.846 445.302 267.273 445.986 266.422 446.478C266.274 446.563 266.12 446.637 265.948 446.705L263.082 441.741ZM266.838 442.297C266.518 441.743 266.092 441.373 265.579 441.192C265.066 441.011 264.524 441.016 263.967 441.23L266.253 445.19C266.756 444.776 267.049 444.315 267.126 443.793C267.203 443.271 267.111 442.771 266.838 442.297Z" fill="white"/>
<path d="M210.271 408.29C208.598 408.117 207.308 407.245 206.414 405.698C205.521 404.151 205.418 402.61 206.098 401.063C206.785 399.527 208.098 398.184 210.061 397.051C212.024 395.917 213.837 395.44 215.517 395.625C217.19 395.798 218.48 396.669 219.373 398.216C220.267 399.763 220.37 401.305 219.689 402.852C219.003 404.388 217.69 405.73 215.727 406.864C213.764 407.997 211.951 408.474 210.271 408.29ZM207.942 401.661C207.422 402.7 207.451 403.745 208.044 404.773C208.637 405.8 209.517 406.355 210.694 406.429C211.861 406.51 213.224 406.092 214.767 405.201C216.31 404.31 217.353 403.339 217.878 402.282C218.402 401.225 218.362 400.186 217.769 399.158C217.176 398.131 216.296 397.577 215.125 397.514C213.965 397.445 212.602 397.862 211.048 398.759C209.504 399.65 208.462 400.622 207.942 401.661Z" fill="white"/>
<path d="M210.199 411.703L211.549 410.923L218.629 412.808C220.502 413.327 221.859 413.344 222.699 412.86C223.402 412.453 223.82 411.919 223.964 411.251C224.108 410.583 223.994 409.941 223.634 409.318C222.941 408.117 221.885 407.572 220.449 407.678L220.446 405.787C221.485 405.725 222.417 405.926 223.244 406.388C224.07 406.849 224.728 407.517 225.228 408.382C225.841 409.444 226.034 410.565 225.795 411.749C225.556 412.934 224.863 413.857 223.694 414.532C222.435 415.259 220.628 415.301 218.269 414.647L213.23 413.231L216.543 418.969L214.942 419.893L210.21 411.696L210.199 411.703Z" fill="white"/>
<path d="M214.525 423.258L213.956 422.324L234.171 420.335L234.74 421.269L214.525 423.258Z" fill="white"/>
<path d="M231.541 431.66C231.919 432.734 231.97 433.767 231.677 434.752C231.39 435.749 230.757 436.514 229.77 437.084C228.556 437.785 227.356 437.908 226.166 437.472C224.976 437.035 224.031 436.211 223.331 434.999C222.771 434.029 222.494 433.05 222.492 432.051C222.49 431.051 222.807 430.16 223.455 429.37L225.092 430.318C224.148 431.356 224.114 432.607 224.96 434.073C225.414 434.858 225.991 435.387 226.675 435.654C227.359 435.921 228.066 435.836 228.792 435.417C229.519 434.997 229.946 434.427 230.068 433.695C230.19 432.963 230.021 432.198 229.568 431.413L229.314 430.975L229.949 429.715L235.552 430.406L232.293 424.76L233.848 423.863L238.247 431.482L236.787 432.309L231.541 431.66Z" fill="white"/>
<path d="M233.386 448.326C231.713 448.154 230.423 447.282 229.53 445.735C228.637 444.188 228.533 442.647 229.214 441.1C229.901 439.564 231.213 438.221 233.176 437.088C235.14 435.954 236.952 435.477 238.632 435.662C240.306 435.835 241.596 436.706 242.489 438.253C243.382 439.8 243.485 441.341 242.805 442.889C242.118 444.424 240.805 445.767 238.842 446.901C236.879 448.034 235.066 448.511 233.386 448.326ZM231.057 441.698C230.537 442.737 230.566 443.782 231.159 444.81C231.752 445.837 232.632 446.391 233.81 446.466C234.976 446.547 236.339 446.129 237.882 445.238C239.425 444.347 240.468 443.376 240.993 442.319C241.517 441.262 241.477 440.223 240.884 439.195C240.291 438.168 239.411 437.613 238.24 437.551C237.08 437.481 235.718 437.899 234.163 438.796C232.613 439.676 231.57 440.647 231.057 441.698Z" fill="white"/>
<path d="M412.143 379.263L409.916 375.407C409.223 374.206 408.381 373.507 406.917 373.644L386.116 375.772L389.142 381.013C389.142 381.013 391.866 380.595 392.449 380.504L396.141 386.9C395.593 387.417 393.787 389.06 393.787 389.06L396.467 393.701L412.143 379.263ZM396.97 379.818C398.243 379.638 403.148 378.883 403.148 378.883C403.159 378.877 404.45 378.701 405.248 378.564L403.887 379.796C403.887 379.796 400.151 383.231 399.345 383.958L396.959 379.825L396.97 379.818Z" fill="white"/>
<path d="M395.285 361.596C394.428 362.076 394.492 363.47 394.676 365.703C395.042 369.325 394.272 371.555 392.194 372.724C388.44 374.845 384.057 372.835 381.018 367.571C379.747 365.318 378.943 362.904 378.769 361.449L383.216 359.821L383.294 360.638C383.564 362.652 383.912 363.883 385.065 365.881C385.891 367.312 387.334 368.526 388.544 367.844C389.345 367.396 389.532 366.411 389.297 363.96C389.06 361.558 389.055 358.22 391.655 356.75C395.164 354.755 399.628 356.826 402.474 361.756C403.594 363.695 404.096 365.483 404.3 366.674L400.003 368.247L399.947 367.678C399.777 366.545 399.442 365.153 398.48 363.538C397.367 361.61 396.034 361.164 395.285 361.596Z" fill="white"/>
<path d="M396.097 351.445L376.282 358.714L373.403 353.727L393.211 346.447L396.097 351.445Z" fill="white"/>
<path d="M376.468 338.858C379.673 334.791 380.835 328.81 378.79 321.94L379.193 321.799L383.665 329.546C384.238 330.616 384.395 331.649 383.461 332.573L376.468 338.858Z" fill="white"/>
<path d="M392.04 344.445L369.509 346.955L366.463 341.679L378.896 328.544C378.729 332.92 377.097 337.51 375.422 339.77L373.867 341.376L388.983 339.175L392.029 344.451L392.04 344.445Z" fill="white"/>
<path d="M124.636 155.324L106.64 124.154C105.487 122.156 106.151 119.587 108.115 118.453L130.798 105.357C132.761 104.223 135.319 104.932 136.472 106.93L154.469 138.1C155.622 140.097 154.957 142.667 152.994 143.8L130.31 156.897C128.347 158.03 125.789 157.321 124.636 155.324Z" fill="#F6C859"/>
<path d="M117.061 133.006C116.968 132.845 116.965 132.631 117.073 132.476C117.222 132.236 117.536 132.178 117.776 132.332C118.479 132.788 119.587 133.318 120.935 133.217C122.648 133.09 124 132.079 123.972 131.741C123.966 131.652 123.676 131.465 123.503 131.35C123.048 131.058 122.424 130.633 122.265 129.833C122.112 129.044 122.504 128.386 122.69 128.079C123.925 126.026 128.466 122.989 131.428 122.695C132.418 122.601 133.145 122.812 133.628 123.334C134.117 123.867 134.154 124.508 134.176 125.018C134.193 125.44 134.225 125.652 134.335 125.712C134.824 125.983 136.316 125.107 137.174 123.842C137.936 122.725 138.031 121.5 137.987 120.663C137.973 120.379 138.188 120.147 138.463 120.126C138.746 120.117 138.978 120.337 139.003 120.615C139.057 121.6 138.937 123.07 138.008 124.422C137.102 125.761 135.101 127.301 133.846 126.594C133.215 126.235 133.182 125.577 133.147 125.043C133.126 124.64 133.107 124.266 132.872 124.017C132.554 123.676 131.959 123.666 131.513 123.708C128.931 123.952 124.613 126.799 123.527 128.612C123.341 128.919 123.152 129.274 123.23 129.645C123.301 130.004 123.586 130.209 124.024 130.495C124.443 130.776 124.924 131.084 124.963 131.677C125.06 132.945 122.916 134.105 120.998 134.243C119.374 134.365 118.03 133.74 117.204 133.201C117.153 133.138 117.101 133.076 117.061 133.006Z" fill="#7D662D"/>
<path d="M130.742 123.337L126.116 115.325C125.976 115.083 126.049 114.764 126.298 114.62C126.547 114.476 126.853 114.561 127 114.815L131.625 122.827C131.765 123.07 131.693 123.389 131.444 123.533C131.195 123.676 130.882 123.58 130.742 123.337Z" fill="#7D662D"/>
<path d="M122.856 127.891L118.23 119.879C118.09 119.636 118.163 119.317 118.412 119.173C118.661 119.03 118.967 119.115 119.113 119.369L123.739 127.381C123.879 127.623 123.806 127.942 123.557 128.086C123.308 128.23 122.996 128.133 122.856 127.891Z" fill="#7D662D"/>
<path d="M122.46 142.357C122.42 142.288 122.392 142.212 122.386 142.123C122.332 141.139 122.451 139.669 123.38 138.316C124.458 136.724 126.536 135.448 127.585 136.166C128.068 136.503 128.105 137.066 128.139 137.57C128.168 138.092 128.203 138.441 128.479 138.682C128.785 138.952 129.251 138.945 129.521 138.942C131.635 138.908 136.248 136.598 137.762 134.477C138.02 134.113 138.303 133.58 138.173 133.147C138.09 132.871 138.242 132.584 138.502 132.511C138.774 132.431 139.05 132.594 139.138 132.852C139.348 133.531 139.156 134.272 138.58 135.082C136.844 137.501 131.95 139.926 129.548 139.958C129.189 139.965 128.424 139.976 127.817 139.449C127.203 138.911 127.147 138.158 127.123 137.618C127.109 137.411 127.085 137.055 127.018 137.017C126.74 136.823 125.187 137.489 124.221 138.908C123.459 140.026 123.364 141.25 123.409 142.087C123.422 142.372 123.207 142.603 122.932 142.624C122.738 142.628 122.554 142.519 122.46 142.357Z" fill="#7D662D"/>
<path d="M137.627 131.23C137.52 131.046 137.534 130.807 137.675 130.633C139.936 128.05 143.397 129.038 144.173 129.544C144.413 129.698 144.476 130.016 144.327 130.256C144.178 130.496 143.863 130.554 143.623 130.4C143.278 130.169 140.355 129.116 138.434 131.318C138.254 131.53 137.931 131.547 137.718 131.362C137.691 131.316 137.653 131.277 137.627 131.23Z" fill="#7D662D"/>
<path d="M142.306 143.367L137.681 135.355C137.541 135.113 137.613 134.794 137.862 134.65C138.112 134.506 138.417 134.591 138.564 134.845L143.19 142.857C143.33 143.1 143.257 143.419 143.008 143.563C142.759 143.706 142.453 143.621 142.306 143.367Z" fill="#7D662D"/>
<path d="M134.42 147.921L129.794 139.909C129.654 139.666 129.727 139.347 129.976 139.203C130.225 139.06 130.531 139.145 130.678 139.399L135.303 147.411C135.443 147.653 135.371 147.972 135.122 148.116C134.872 148.26 134.567 148.174 134.42 147.921Z" fill="#7D662D"/>
<defs>
<linearGradient id="paint0_linear_3_61" x1="-3.39779" y1="199.001" x2="473.887" y2="322.497" gradientUnits="userSpaceOnUse">
<stop stop-color="#1B1464"/>
<stop offset="1" stop-color="#83EFFF"/>
</linearGradient>
<linearGradient id="paint1_linear_3_61" x1="269.432" y1="330.289" x2="459.168" y2="379.383" gradientUnits="userSpaceOnUse">
<stop stop-color="#83EFFF"/>
<stop offset="1" stop-color="#1B1464"/>
</linearGradient>
<linearGradient id="paint2_linear_3_61" x1="-13.1822" y1="236.831" x2="415.271" y2="347.692" gradientUnits="userSpaceOnUse">
<stop stop-color="#1B1464"/>
<stop offset="1" stop-color="#83EFFF"/>
</linearGradient>
<linearGradient id="paint3_linear_3_61" x1="136.355" y1="43.5318" x2="319.754" y2="90.9857" gradientUnits="userSpaceOnUse">
<stop stop-color="#1B1464"/>
<stop offset="1" stop-color="#83EFFF"/>
</linearGradient>
<linearGradient id="paint4_linear_3_61" x1="56.204" y1="329.596" x2="184.653" y2="362.832" gradientUnits="userSpaceOnUse">
<stop stop-color="#02B6FD"/>
<stop offset="1" stop-color="#83EFFF"/>
</linearGradient>
<linearGradient id="paint5_linear_3_61" x1="-15.3599" y1="245.232" x2="299.735" y2="326.762" gradientUnits="userSpaceOnUse">
<stop stop-color="#1B1464"/>
<stop offset="1" stop-color="#83EFFF"/>
</linearGradient>
<linearGradient id="paint6_linear_3_61" x1="-3.39779" y1="199.001" x2="473.887" y2="322.497" gradientUnits="userSpaceOnUse">
<stop stop-color="#02CAFD"/>
<stop offset="1" stop-color="#83F8A6"/>
</linearGradient>
</defs>
</svg>
