<svg width="281" height="450" viewBox="0 0 281 450" fill="none" xmlns="http://www.w3.org/2000/svg">
<path opacity="0.35" d="M253.497 449.973H27.0886C26.6316 449.973 26.1876 449.96 25.7306 449.933C25.4041 449.92 25.0776 449.88 24.7512 449.867C11.2748 448.655 0.697424 437.104 0.697424 423.049V26.9243C0.697424 16.826 6.14282 8.03335 14.213 3.43716C14.3827 3.31726 14.5264 3.23732 14.6831 3.15738C18.3786 1.1324 22.5965 0 27.0886 0L253.497 0C254.084 0 254.672 0.0133263 255.26 0.0666155C255.586 0.0799378 255.912 0.119899 256.239 0.133221C269.506 1.54538 279.875 13.0025 279.875 26.9243V423.049C279.875 428.351 278.347 433.334 275.735 437.504C273.554 440.994 270.642 443.912 267.182 446.07C267.117 446.097 267.064 446.15 266.999 446.177C263.042 448.588 258.433 449.973 253.497 449.973Z" fill="url(#paint0_linear_3_170)"/>
<path d="M253.901 450H27.4934C26.9058 450 26.3181 449.987 25.7305 449.933C25.404 449.92 25.0776 449.88 24.7511 449.867C11.4837 448.455 1.11526 436.984 1.11526 423.076V26.951C1.11526 20.6762 3.20461 14.921 6.75652 10.3381C6.8871 10.1383 7.05687 9.93845 7.21357 9.73862C12.0583 3.79688 19.358 0.0266724 27.4934 0.0266724L253.901 0.0266724C254.358 0.0266724 254.816 0.039993 255.259 0.0666376C255.625 0.0799599 255.978 0.119923 256.343 0.146568C269.781 1.39886 280.293 12.9093 280.293 26.951V423.076C280.293 428.378 278.791 433.36 276.153 437.53C275.879 437.983 275.578 438.436 275.265 438.876C275.056 439.142 274.86 439.422 274.625 439.689C269.833 445.977 262.324 450 253.901 450Z" fill="url(#paint1_linear_3_170)"/>
<mask id="mask0_3_170" style="mask-type:alpha" maskUnits="userSpaceOnUse" x="0" y="0" width="280" height="448">
<path d="M253.327 447.975H26.6967C26.1085 447.975 25.5203 447.962 24.932 447.909C24.6053 447.896 24.2785 447.856 23.9517 447.843C10.6712 446.438 0.292637 435.027 0.292637 421.191V27.1304C0.292637 20.8883 2.38404 15.1631 5.93943 10.6041C6.07015 10.4053 6.24008 10.2065 6.39694 10.0077C11.2464 4.09692 18.5533 0.346359 26.6967 0.346359L253.327 0.346359C253.785 0.346359 254.242 0.35961 254.686 0.386116C255.052 0.399369 255.405 0.439124 255.771 0.46563C269.222 1.7114 279.744 13.1619 279.744 27.1304V421.191C279.744 426.466 278.241 431.422 275.601 435.57C275.326 436.021 275.025 436.472 274.712 436.909C274.503 437.174 274.307 437.452 274.071 437.717C269.274 443.973 261.758 447.975 253.327 447.975Z" fill="url(#paint2_linear_3_170)"/>
</mask>
<g mask="url(#mask0_3_170)">
<path d="M212.075 188.51L208.105 191.135C206.591 192.134 206.173 194.199 207.152 195.731L316.778 367.908C317.757 369.453 319.781 369.88 321.283 368.881L325.253 366.256C326.768 365.257 327.186 363.192 326.206 361.66L216.593 189.483C215.601 187.951 213.59 187.511 212.075 188.51Z" fill="url(#paint3_linear_3_170)"/>
<path d="M218.617 241.919L214.648 244.544C213.133 245.543 212.715 247.608 213.694 249.14L323.333 421.317C324.313 422.862 326.337 423.289 327.838 422.29L331.808 419.665C333.323 418.666 333.741 416.601 332.762 415.069L223.136 242.892C222.156 241.36 220.132 240.92 218.617 241.919Z" fill="url(#paint4_linear_3_170)"/>
<path d="M180.996 218.552L177.026 221.176C175.511 222.176 175.093 224.241 176.073 225.773L285.699 397.95C286.678 399.495 288.702 399.922 290.204 398.922L294.174 396.298C295.689 395.299 296.106 393.234 295.127 391.702L185.501 219.524C184.522 217.992 182.511 217.553 180.996 218.552Z" fill="url(#paint5_linear_3_170)"/>
<path d="M151.549 256.947L147.579 259.571C146.064 260.57 145.647 262.635 146.626 264.167L256.252 436.345C257.231 437.89 259.255 438.316 260.757 437.317L264.727 434.693C266.242 433.693 266.66 431.629 265.68 430.096L156.054 257.919C155.075 256.374 153.064 255.934 151.549 256.947Z" fill="url(#paint6_linear_3_170)"/>
<path d="M185.906 236.91L181.936 239.535C180.421 240.534 180.003 242.599 180.983 244.131L290.609 416.308C291.588 417.853 293.612 418.28 295.114 417.28L299.084 414.656C300.598 413.657 301.016 411.592 300.037 410.06L190.411 237.883C189.432 236.351 187.421 235.911 185.906 236.91Z" fill="url(#paint7_linear_3_170)"/>
<path d="M197.358 251.938L193.388 254.562C191.874 255.561 191.456 257.626 192.435 259.158L302.061 431.335C303.04 432.881 305.065 433.307 306.566 432.308L310.536 429.683C312.051 428.684 312.469 426.619 311.489 425.087L201.863 252.91C200.884 251.365 198.86 250.938 197.358 251.938Z" fill="url(#paint8_linear_3_170)"/>
<path d="M130.29 156.803L126.32 159.428C124.805 160.427 124.387 162.492 125.367 164.024L234.993 336.201C235.972 337.746 237.996 338.173 239.498 337.173L243.468 334.549C244.982 333.55 245.4 331.485 244.421 329.953L134.795 157.776C133.816 156.244 131.792 155.804 130.29 156.803Z" fill="url(#paint9_linear_3_170)"/>
<path d="M146.639 273.626L142.669 276.251C141.154 277.25 140.737 279.315 141.716 280.847L251.342 453.024C252.321 454.57 254.345 454.996 255.847 453.997L259.817 451.372C261.332 450.373 261.75 448.308 260.77 446.776L151.144 274.599C150.165 273.067 148.154 272.627 146.639 273.626Z" fill="url(#paint10_linear_3_170)"/>
<path d="M113.928 185.18L109.958 187.804C108.443 188.803 108.025 190.868 109.004 192.4L218.63 364.578C219.61 366.123 221.634 366.549 223.136 365.55L227.105 362.926C228.62 361.926 229.038 359.861 228.059 358.329L118.433 186.152C117.453 184.607 115.429 184.18 113.928 185.18Z" fill="url(#paint11_linear_3_170)"/>
<path d="M76.2929 223.561L72.3231 226.186C70.8083 227.185 70.3905 229.25 71.3698 230.782L180.996 402.959C181.975 404.504 183.999 404.931 185.501 403.932L189.471 401.307C190.986 400.308 191.403 398.243 190.424 396.711L80.7981 224.534C79.8317 223.002 77.8077 222.562 76.2929 223.561Z" fill="url(#paint12_linear_3_170)"/>
<path d="M156.459 270.296L152.489 272.92C150.974 273.919 150.557 275.984 151.536 277.516L261.162 449.694C262.141 451.239 264.165 451.665 265.667 450.666L269.637 448.042C271.152 447.042 271.57 444.977 270.59 443.445L160.964 271.268C159.985 269.723 157.974 269.296 156.459 270.296Z" fill="url(#paint13_linear_3_170)"/>
<path d="M180.996 330.379L177.026 333.004C175.511 334.003 175.093 336.068 176.073 337.6L285.699 509.777C286.678 511.322 288.702 511.749 290.204 510.75L294.174 508.125C295.689 507.126 296.106 505.061 295.127 503.529L185.501 331.352C184.522 329.806 182.511 329.38 180.996 330.379Z" fill="url(#paint14_linear_3_170)"/>
<path d="M141.742 256.947L137.772 259.571C136.258 260.57 135.84 262.635 136.819 264.167L246.445 436.345C247.424 437.89 249.448 438.316 250.95 437.317L254.92 434.693C256.435 433.694 256.853 431.629 255.873 430.096L146.247 257.919C145.268 256.374 143.244 255.934 141.742 256.947Z" fill="url(#paint15_linear_3_170)"/>
<path d="M136.832 335.375L132.862 337.999C131.348 338.999 130.93 341.064 131.909 342.596L241.535 514.773C242.514 516.318 244.539 516.745 246.04 515.745L250.01 513.121C251.525 512.122 251.943 510.057 250.963 508.525L141.337 336.347C140.358 334.815 138.334 334.376 136.832 335.375Z" fill="url(#paint16_linear_3_170)"/>
<path d="M151.549 230.235L147.579 232.86C146.065 233.859 145.647 235.924 146.626 237.456L256.252 409.633C257.231 411.179 259.255 411.605 260.757 410.606L264.727 407.981C266.242 406.982 266.66 404.917 265.68 403.385L156.054 231.208C155.075 229.676 153.064 229.236 151.549 230.235Z" fill="url(#paint17_linear_3_170)"/>
<path d="M163.001 290.319L159.032 292.943C157.517 293.943 157.099 296.008 158.078 297.54L267.704 469.717C268.684 471.262 270.708 471.689 272.209 470.689L276.179 468.065C277.694 467.066 278.112 465.001 277.132 463.469L167.507 291.292C166.527 289.759 164.516 289.32 163.001 290.319Z" fill="url(#paint18_linear_3_170)"/>
<path d="M123.734 296.993L119.765 299.618C118.25 300.617 117.832 302.682 118.811 304.214L228.437 476.391C229.417 477.937 231.441 478.363 232.943 477.364L236.912 474.739C238.427 473.74 238.845 471.675 237.866 470.143L128.253 297.966C127.273 296.434 125.249 295.994 123.734 296.993Z" fill="url(#paint19_linear_3_170)"/>
<path d="M104.108 335.375L100.138 337.999C98.6231 338.999 98.2052 341.064 99.1846 342.596L208.811 514.773C209.79 516.318 211.814 516.745 213.316 515.745L217.285 513.121C218.8 512.122 219.218 510.057 218.239 508.525L108.613 336.347C107.633 334.815 105.622 334.376 104.108 335.375Z" fill="url(#paint20_linear_3_170)"/>
<path d="M107.385 230.235L103.415 232.86C101.901 233.859 101.483 235.924 102.462 237.456L212.088 409.633C213.068 411.179 215.092 411.605 216.593 410.606L220.563 407.981C222.078 406.982 222.496 404.917 221.516 403.385L111.89 231.208C110.911 229.676 108.887 229.236 107.385 230.235Z" fill="url(#paint21_linear_3_170)"/>
<path d="M127.012 200.194L123.042 202.818C121.528 203.818 121.11 205.882 122.089 207.415L231.715 379.592C232.694 381.137 234.719 381.563 236.22 380.564L240.19 377.94C241.705 376.941 242.123 374.876 241.143 373.344L131.517 201.166C130.538 199.634 128.527 199.195 127.012 200.194Z" fill="url(#paint22_linear_3_170)"/>
<path d="M28.8515 -135.261L24.8817 -132.637C23.3669 -131.638 22.9491 -129.573 23.9285 -128.041L133.554 44.1366C134.534 45.682 136.558 46.1083 138.06 45.1091L142.029 42.4846C143.544 41.4855 143.962 39.4205 142.983 37.8884L33.3697 -134.289C32.3904 -135.834 30.3663 -136.274 28.8515 -135.261Z" fill="url(#paint23_linear_3_170)"/>
<path d="M35.4069 -81.8654L31.4371 -79.2409C29.9223 -78.2417 29.5044 -76.1768 30.4838 -74.6447L140.11 97.5325C141.089 99.0778 143.113 99.5042 144.615 98.505L148.585 95.8805C150.1 94.8813 150.517 92.8164 149.538 91.2843L39.912 -80.8795C38.9326 -82.4249 36.9086 -82.8645 35.4069 -81.8654Z" fill="url(#paint24_linear_3_170)"/>
<path d="M-2.22766 -105.219L-6.19745 -102.595C-7.71223 -101.596 -8.13012 -99.5307 -7.15073 -97.9986L102.475 74.1785C103.455 75.7239 105.479 76.1502 106.98 75.1511L110.95 72.5266C112.465 71.5274 112.883 69.4625 111.903 67.9304L2.27751 -104.247C1.29813 -105.792 -0.712875 -106.232 -2.22766 -105.219Z" fill="url(#paint25_linear_3_170)"/>
<path d="M-31.6746 -66.8379L-35.6443 -64.2134C-37.1591 -63.2142 -37.577 -61.1492 -36.5976 -59.6172L73.0284 112.56C74.0077 114.105 76.0318 114.532 77.5335 113.533L81.5033 110.908C83.0181 109.909 83.436 107.844 82.4566 106.312L-27.1694 -65.8653C-28.1488 -67.3974 -30.1598 -67.837 -31.6746 -66.8379Z" fill="url(#paint26_linear_3_170)"/>
<path d="M2.68231 -86.8613L-1.28746 -84.2368C-2.80224 -83.2377 -3.22013 -81.1727 -2.24074 -79.6406L107.385 92.5365C108.365 94.0819 110.389 94.5082 111.89 93.509L115.86 90.8846C117.375 89.8854 117.793 87.8204 116.813 86.2884L7.18749 -85.8888C6.2081 -87.4342 4.1971 -87.8738 2.68231 -86.8613Z" fill="url(#paint27_linear_3_170)"/>
<path d="M14.1346 -71.8471L10.1648 -69.2226C8.64998 -68.2234 8.23211 -66.1584 9.2115 -64.6264L118.837 107.551C119.817 109.096 121.841 109.522 123.343 108.523L127.312 105.899C128.827 104.9 129.245 102.835 128.266 101.303L18.6397 -70.8745C17.6603 -72.4066 15.6493 -72.8462 14.1346 -71.8471Z" fill="url(#paint28_linear_3_170)"/>
<path d="M-52.9338 -166.982L-56.9035 -164.357C-58.4183 -163.358 -58.8362 -161.293 -57.8568 -159.761L51.7691 12.4163C52.7485 13.9617 54.7726 14.388 56.2743 13.3888L60.2441 10.7644C61.7589 9.76519 62.1768 7.70022 61.1974 6.16816L-48.4286 -165.996C-49.408 -167.541 -51.4321 -167.981 -52.9338 -166.982Z" fill="url(#paint29_linear_3_170)"/>
<path d="M-36.5846 -50.1452L-40.5543 -47.5207C-42.0691 -46.5215 -42.487 -44.4565 -41.5076 -42.9245L68.1184 129.253C69.0977 130.798 71.1218 131.224 72.6235 130.225L76.5933 127.601C78.1081 126.602 78.526 124.537 77.5466 123.005L-32.0663 -49.1726C-33.0588 -50.718 -35.0698 -51.1443 -36.5846 -50.1452Z" fill="url(#paint30_linear_3_170)"/>
<path d="M-69.2961 -138.605L-73.2658 -135.981C-74.7806 -134.981 -75.1985 -132.916 -74.2191 -131.384L35.4068 40.7928C36.3862 42.3382 38.4103 42.7645 39.912 41.7653L43.8818 39.1408C45.3966 38.1417 45.8144 36.0767 44.8351 34.5446L-64.7909 -137.633C-65.7703 -139.165 -67.7944 -139.604 -69.2961 -138.605Z" fill="url(#paint31_linear_3_170)"/>
<path d="M-106.931 -100.223L-110.9 -97.599C-112.415 -96.5998 -112.833 -94.5349 -111.854 -93.0028L-2.22767 79.1744C-1.24828 80.7197 0.775781 81.146 2.27751 80.1469L6.24728 77.5224C7.76206 76.5232 8.17993 74.4583 7.20054 72.9262L-102.412 -99.2376C-103.392 -100.783 -105.416 -101.223 -106.931 -100.223Z" fill="url(#paint32_linear_3_170)"/>
<path d="M-26.7646 -53.4891L-30.7344 -50.8646C-32.2492 -49.8655 -32.667 -47.8005 -31.6876 -46.2684L77.9383 125.909C78.9177 127.454 80.9418 127.88 82.4435 126.881L86.4133 124.257C87.928 123.258 88.3459 121.193 87.3665 119.661L-22.2594 -52.5166C-23.2388 -54.0487 -25.2498 -54.4883 -26.7646 -53.4891Z" fill="url(#paint33_linear_3_170)"/>
<path d="M-2.22766 6.59444L-6.19745 9.21894C-7.71223 10.2181 -8.13012 12.2831 -7.15073 13.8151L102.475 185.992C103.455 187.538 105.479 187.964 106.98 186.965L110.95 184.34C112.465 183.341 112.883 181.276 111.903 179.744L2.27751 7.56697C1.29813 6.0349 -0.712875 5.59527 -2.22766 6.59444Z" fill="url(#paint34_linear_3_170)"/>
<path d="M-41.4815 -66.8379L-45.4513 -64.2134C-46.966 -63.2142 -47.3839 -61.1492 -46.4045 -59.6172L63.2214 112.56C64.2008 114.105 66.2249 114.532 67.7266 113.533L71.6964 110.908C73.2112 109.909 73.6291 107.844 72.6497 106.312L-36.9763 -65.8653C-37.9557 -67.3974 -39.9797 -67.837 -41.4815 -66.8379Z" fill="url(#paint35_linear_3_170)"/>
<path d="M-46.3914 11.6036L-50.3612 14.2281C-51.876 15.2273 -52.2939 17.2923 -51.3145 18.8243L58.3115 191.001C59.2909 192.547 61.3149 192.973 62.8167 191.974L66.7864 189.35C68.3012 188.35 68.7191 186.285 67.7397 184.753L-41.8863 12.5762C-42.8656 11.0441 -44.8897 10.6045 -46.3914 11.6036Z" fill="url(#paint36_linear_3_170)"/>
<path d="M-31.6746 -93.549L-35.6444 -90.9245C-37.1591 -89.9254 -37.577 -87.8604 -36.5976 -86.3284L73.0283 85.8488C74.0077 87.3942 76.0318 87.8205 77.5335 86.8213L81.5033 84.1969C83.0181 83.1977 83.4359 81.1327 82.4566 79.6007L-27.1694 -92.5632C-28.1488 -94.1086 -30.1598 -94.5482 -31.6746 -93.549Z" fill="url(#paint37_linear_3_170)"/>
<path d="M-20.2223 -33.4655L-24.192 -30.8411C-25.7068 -29.8419 -26.1247 -27.7769 -25.1453 -26.2449L84.4807 145.932C85.46 147.478 87.4841 147.904 88.9858 146.905L92.9556 144.28C94.4704 143.281 94.8883 141.216 93.9089 139.684L-15.7171 -32.493C-16.6965 -34.0251 -18.7075 -34.4647 -20.2223 -33.4655Z" fill="url(#paint38_linear_3_170)"/>
<path d="M-59.4761 -26.7778L-63.4459 -24.1533C-64.9606 -23.1541 -65.3785 -21.0892 -64.3991 -19.5571L45.2268 152.62C46.2062 154.165 48.2303 154.592 49.732 153.593L53.7018 150.968C55.2166 149.969 55.6345 147.904 54.6551 146.372L-54.9709 -25.8053C-55.9503 -27.3506 -57.9743 -27.7903 -59.4761 -26.7778Z" fill="url(#paint39_linear_3_170)"/>
<path d="M-79.116 11.6036L-83.0858 14.2281C-84.6006 15.2273 -85.0184 17.2923 -84.0391 18.8243L25.5869 191.001C26.5663 192.547 28.5904 192.973 30.0921 191.974L34.0619 189.35C35.5766 188.35 35.9945 186.285 35.0151 184.753L-74.6108 12.5762C-75.5902 11.0441 -77.6012 10.6045 -79.116 11.6036Z" fill="url(#paint40_linear_3_170)"/>
<path d="M-75.8383 -93.549L-79.8081 -90.9245C-81.3229 -89.9254 -81.7408 -87.8604 -80.7614 -86.3284L28.8646 85.8488C29.844 87.3942 31.868 87.8205 33.3697 86.8213L37.3395 84.1969C38.8543 83.1977 39.2722 81.1327 38.2928 79.6007L-71.3332 -92.5632C-72.3126 -94.1086 -74.3366 -94.5482 -75.8383 -93.549Z" fill="url(#paint41_linear_3_170)"/>
<path d="M-56.2114 -123.591L-60.1812 -120.966C-61.696 -119.967 -62.1139 -117.902 -61.1345 -116.37L48.4915 55.807C49.4709 57.3524 51.4949 57.7787 52.9966 56.7795L56.9664 54.155C58.4812 53.1559 58.8991 51.0909 57.9197 49.5589L-51.7063 -122.605C-52.6857 -124.15 -54.6967 -124.59 -56.2114 -123.591Z" fill="url(#paint42_linear_3_170)"/>
</g>
<g clip-path="url(#clip0_3_170)">
<path d="M165.742 41.9888H163.509L163.652 38.7648L161.106 40.6432L159.918 38.6183L162.764 37.0196L159.918 35.4209L161.106 33.4359L163.652 35.2877L163.509 32.0903H165.742L165.572 35.2877L168.144 33.4359L169.333 35.4209L166.486 37.0196L169.333 38.6183L168.144 40.6432L165.572 38.7648L165.742 41.9888Z" fill="white"/>
<path d="M165.742 58.6283H163.509L163.652 55.4043L161.106 57.2828L159.918 55.2578L162.764 53.6591L159.918 52.0604L161.106 50.0754L163.652 51.9272L163.509 48.7299H165.742L165.572 51.9272L168.144 50.0754L169.333 52.0604L166.486 53.6591L169.333 55.2578L168.144 57.2828L165.572 55.4043L165.742 58.6283Z" fill="white"/>
<path d="M165.742 75.2812H163.509L163.652 72.0572L161.106 73.9356L159.918 71.9106L162.764 70.3119L159.918 68.7133L161.106 66.7283L163.652 68.5801L163.509 65.3827H165.742L165.572 68.5801L168.144 66.7283L169.333 68.7133L166.486 70.3119L169.333 71.9106L168.144 73.9356L165.572 72.0572L165.742 75.2812Z" fill="white"/>
<path d="M165.742 91.9207H163.509L163.652 88.6967L161.106 90.5751L159.918 88.5502L162.764 86.9515L159.918 85.3528L161.106 83.3678L163.652 85.2196L163.509 82.0222H165.742L165.572 85.2196L168.144 83.3678L169.333 85.3528L166.486 86.9515L169.333 88.5502L168.144 90.5751L165.572 88.6967L165.742 91.9207Z" fill="white"/>
<path d="M165.742 120.111H163.509L163.652 116.887L161.106 118.765L159.918 116.74L162.764 115.141L159.918 113.543L161.106 111.558L163.652 113.41L163.509 110.212H165.742L165.572 113.41L168.144 111.558L169.333 113.543L166.486 115.141L169.333 116.74L168.144 118.765L165.572 116.887L165.742 120.111Z" fill="white"/>
<path d="M165.742 136.75H163.509L163.652 133.526L161.106 135.405L159.918 133.38L162.764 131.781L159.918 130.182L161.106 128.197L163.652 130.049L163.509 126.852H165.742L165.572 130.049L168.144 128.197L169.333 130.182L166.486 131.781L169.333 133.38L168.144 135.405L165.572 133.526L165.742 136.75Z" fill="white"/>
<path d="M165.742 153.403H163.509L163.652 150.179L161.106 152.057L159.918 150.032L162.764 148.434L159.918 146.835L161.106 144.85L163.652 146.702L163.509 143.505H165.742L165.572 146.702L168.144 144.85L169.333 146.835L166.486 148.434L169.333 150.032L168.144 152.057L165.572 150.179L165.742 153.403Z" fill="white"/>
<path d="M165.742 170.043H163.509L163.652 166.819L161.106 168.697L159.918 166.672L162.764 165.073L159.918 163.475L161.106 161.49L163.652 163.341L163.509 160.144H165.742L165.572 163.341L168.144 161.49L169.333 163.475L166.486 165.073L169.333 166.672L168.144 168.697L165.572 166.819L165.742 170.043Z" fill="white"/>
<path d="M165.742 198.233H163.509L163.652 195.009L161.106 196.887L159.918 194.862L162.764 193.263L159.918 191.665L161.106 189.68L163.652 191.531L163.509 188.334H165.742L165.572 191.531L168.144 189.68L169.333 191.665L166.486 193.263L169.333 194.862L168.144 196.887L165.572 195.009L165.742 198.233Z" fill="white"/>
<path d="M165.742 214.872H163.509L163.652 211.648L161.106 213.526L159.918 211.501L162.764 209.903L159.918 208.304L161.106 206.319L163.652 208.171L163.509 204.974H165.742L165.572 208.171L168.144 206.319L169.333 208.304L166.486 209.903L169.333 211.501L168.144 213.526L165.572 211.648L165.742 214.872Z" fill="white"/>
<path d="M165.742 231.525H163.509L163.652 228.301L161.106 230.179L159.918 228.154L162.764 226.556L159.918 224.957L161.106 222.972L163.652 224.824L163.509 221.626H165.742L165.572 224.824L168.144 222.972L169.333 224.957L166.486 226.556L169.333 228.154L168.144 230.179L165.572 228.301L165.742 231.525Z" fill="white"/>
<path d="M165.742 248.164H163.509L163.652 244.94L161.106 246.819L159.918 244.794L162.764 243.195L159.918 241.597L161.106 239.611L163.652 241.463L163.509 238.266H165.742L165.572 241.463L168.144 239.611L169.333 241.597L166.486 243.195L169.333 244.794L168.144 246.819L165.572 244.94L165.742 248.164Z" fill="white"/>
<path d="M144.522 265.657H147.16L155.922 274.423C158.22 276.767 160.192 277.94 161.837 277.94C163.208 277.94 164.279 277.513 165.037 276.661C165.807 275.808 166.186 274.769 166.186 273.543C166.186 271.199 165.102 269.493 162.921 268.428L164.527 265.657C166.107 266.443 167.296 267.522 168.105 268.907C168.915 270.293 169.32 271.825 169.32 273.503C169.32 275.582 168.654 277.393 167.309 278.939C165.964 280.484 164.149 281.244 161.876 281.244C159.421 281.244 156.731 279.765 153.832 276.807L147.643 270.466V281.697H144.509V265.657H144.522Z" fill="white"/>
<path d="M158.886 296.604C158.533 298.496 157.737 300.055 156.483 301.267C155.23 302.479 153.636 303.079 151.717 303.079C149.353 303.079 147.486 302.253 146.115 300.588C144.744 298.922 144.065 296.924 144.065 294.553C144.065 292.661 144.482 290.982 145.331 289.517C146.18 288.051 147.395 287.012 149.001 286.399L150.607 289.17C148.361 289.903 147.238 291.702 147.238 294.566C147.238 296.098 147.63 297.35 148.426 298.323C149.21 299.295 150.32 299.775 151.73 299.775C153.14 299.775 154.25 299.295 155.047 298.323C155.843 297.35 156.248 296.098 156.248 294.566V293.713L158.233 292.394L165.846 298.15V287.105H168.876V302.013L166.042 302L158.886 296.604Z" fill="white"/>
<path d="M152.174 327.592H149.144V324.581H144.522V321.277H149.144V308.608H152.174L168.876 317.52V321.064L152.174 312.151V321.277H159.069V324.581H152.174V327.592Z" fill="white"/>
<path d="M159.369 340.581C159.369 342.926 158.69 344.911 157.332 346.536C155.974 348.161 154.107 348.974 151.717 348.974C149.353 348.974 147.486 348.148 146.115 346.496C144.744 344.844 144.065 342.833 144.065 340.461C144.065 338.569 144.509 336.877 145.41 335.385C146.298 333.893 147.59 332.854 149.288 332.268L150.855 335.066C149.667 335.399 148.779 336.038 148.165 336.984C147.551 337.93 147.238 339.089 147.238 340.461C147.238 342.02 147.63 343.286 148.426 344.258C149.21 345.231 150.32 345.71 151.73 345.71C153.14 345.71 154.25 345.231 155.047 344.258C155.843 343.286 156.248 342.047 156.248 340.528V333.507L168.876 334.4V348.028H165.846V337.41L159.369 336.971V340.581V340.581Z" fill="white"/>
<path d="M77.9887 34.1819C77.9887 32.7298 78.4588 31.5308 79.399 30.5849C80.3392 29.639 81.4883 29.1728 82.8595 29.1728C84.2306 29.1728 85.3798 29.639 86.32 30.5849C87.2602 31.5308 87.7303 32.7298 87.7303 34.1819C87.7303 35.0612 87.5213 35.8605 87.1165 36.5933C86.6987 37.326 86.1502 37.8989 85.4581 38.3118L84.8313 37.2061C85.3536 36.9263 85.7585 36.5267 86.0719 35.9804C86.3853 35.4342 86.5289 34.8347 86.5289 34.1819C86.5289 33.0762 86.1763 32.1703 85.4842 31.4775C84.7921 30.7848 83.9172 30.4251 82.8725 30.4251C81.8409 30.4251 80.966 30.7714 80.2739 31.4775C79.5818 32.1703 79.2292 33.0762 79.2292 34.1819C79.2292 34.8347 79.3859 35.4342 79.6863 35.9804C79.9997 36.5267 80.4045 36.9263 80.9138 37.2061L80.3 38.3118C79.6079 37.9122 79.0464 37.3393 78.6285 36.6066C78.1976 35.8739 77.9887 35.0612 77.9887 34.1819Z" fill="white"/>
<path d="M84.8835 45.2794V46.4651H78.1715V45.2794H79.3206C78.4326 44.6799 77.9886 43.8273 77.9886 42.6949C77.9886 41.7357 78.3282 40.923 79.0203 40.2436C79.6993 39.5641 80.5351 39.2311 81.5275 39.2311C82.5199 39.2311 83.3426 39.5641 84.0347 40.2436C84.7138 40.923 85.0663 41.7357 85.0663 42.6949C85.0663 43.8273 84.6224 44.6932 83.7344 45.2794H84.8835ZM79.1247 42.8414C79.1247 43.5342 79.3598 44.1204 79.8168 44.5866C80.2739 45.0529 80.8485 45.2794 81.5275 45.2794C82.2065 45.2794 82.7811 45.0529 83.2382 44.5866C83.6952 44.1204 83.9303 43.5475 83.9303 42.8414C83.9303 42.162 83.6952 41.5758 83.2382 41.1228C82.7811 40.6699 82.2065 40.4301 81.5275 40.4301C80.8485 40.4301 80.2739 40.6566 79.8168 41.1228C79.3467 41.5758 79.1247 42.1487 79.1247 42.8414Z" fill="white"/>
<path d="M83.7475 49.4626C84.5832 49.8489 85.0011 50.5683 85.0011 51.5942H83.7736C83.7997 51.008 83.643 50.5017 83.3165 50.0887C82.9901 49.6758 82.4547 49.4626 81.7234 49.4626H78.1715V48.2769H84.8835V49.4626H83.7475V49.4626Z" fill="white"/>
<path d="M87.5605 58.0688V59.2545H78.1715V58.0688H79.3206C78.4326 57.4693 77.9886 56.6167 77.9886 55.4843C77.9886 54.5251 78.3282 53.7124 79.0203 53.033C79.6993 52.3535 80.535 52.0205 81.5275 52.0205C82.5199 52.0205 83.3426 52.3535 84.0347 53.033C84.7138 53.7124 85.0663 54.5251 85.0663 55.4843C85.0663 56.6167 84.6224 57.4826 83.7344 58.0688H87.5605ZM79.1247 55.6308C79.1247 56.3236 79.3598 56.9098 79.8168 57.376C80.2739 57.8423 80.8485 58.0688 81.5275 58.0688C82.2065 58.0688 82.7811 57.8423 83.2382 57.376C83.6952 56.9098 83.9303 56.3369 83.9303 55.6308C83.9303 54.9514 83.6952 54.3652 83.2382 53.9122C82.7811 53.4593 82.2065 53.2195 81.5275 53.2195C80.8485 53.2195 80.2739 53.446 79.8168 53.9122C79.3467 54.3652 79.1247 54.9381 79.1247 55.6308Z" fill="white"/>
<path d="M87.5605 70.5384V71.8041H78.1715V70.5384H82.4024V65.889H78.1715V64.61H87.5605V65.889H83.5777V70.5384H87.5605V70.5384Z" fill="white"/>
<path d="M79.0203 79.5043C78.3412 78.7983 78.0017 77.9456 78.0017 76.9465C78.0017 75.9473 78.3412 75.0947 79.0203 74.3886C79.6993 73.6825 80.535 73.3361 81.5275 73.3361C82.5199 73.3361 83.3557 73.6825 84.0347 74.3886C84.7138 75.0947 85.0533 75.934 85.0533 76.9465C85.0533 77.959 84.7138 78.7983 84.0347 79.5043C83.3557 80.2104 82.5199 80.5568 81.5275 80.5568C80.535 80.5568 79.6993 80.2104 79.0203 79.5043ZM79.1378 76.9465C79.1378 77.6259 79.3598 78.2121 79.8168 78.665C80.2739 79.1313 80.8354 79.3578 81.5144 79.3578C82.1935 79.3578 82.768 79.1313 83.2251 78.665C83.6821 78.1988 83.9041 77.6259 83.9041 76.9465C83.9041 76.267 83.6821 75.6942 83.2251 75.2279C82.768 74.7616 82.1935 74.5351 81.5144 74.5351C80.8354 74.5351 80.2608 74.7616 79.8168 75.2279C79.3598 75.6942 79.1378 76.267 79.1378 76.9465Z" fill="white"/>
<path d="M78.1715 81.969H87.9653V83.1546H78.1715V81.969Z" fill="white"/>
<path d="M87.5605 90.6551V91.8408H78.1715V90.6551H79.3206C78.4326 90.0556 77.9886 89.203 77.9886 88.0706C77.9886 87.1114 78.3282 86.2987 79.0203 85.6193C79.6993 84.9398 80.535 84.6068 81.5275 84.6068C82.5199 84.6068 83.3426 84.9398 84.0347 85.6193C84.7138 86.2987 85.0663 87.1114 85.0663 88.0706C85.0663 89.203 84.6224 90.0689 83.7344 90.6551H87.5605ZM79.1247 88.2171C79.1247 88.9099 79.3598 89.496 79.8168 89.9623C80.2739 90.4286 80.8485 90.6551 81.5275 90.6551C82.2065 90.6551 82.7811 90.4286 83.2382 89.9623C83.6952 89.496 83.9303 88.9232 83.9303 88.2171C83.9303 87.5377 83.6952 86.9515 83.2382 86.4985C82.7811 86.0456 82.2065 85.8058 81.5275 85.8058C80.8485 85.8058 80.2739 86.0322 79.8168 86.4985C79.3467 86.9515 79.1247 87.5243 79.1247 88.2171Z" fill="white"/>
<path d="M80.9921 94.4786C80.3914 94.5985 79.9213 94.8782 79.5948 95.3179C79.2684 95.7575 79.0986 96.3037 79.0986 96.9565C79.0986 97.8624 79.4251 98.5152 80.078 98.9282L79.5165 99.9407C78.511 99.2746 78.0017 98.2754 78.0017 96.9299C78.0017 95.8374 78.3282 94.9582 79.0072 94.2787C79.6862 93.5993 80.522 93.2529 81.5406 93.2529C82.5461 93.2529 83.3949 93.586 84.0608 94.2521C84.7268 94.9182 85.0663 95.7842 85.0663 96.8366C85.0663 97.8358 84.7138 98.6618 84.0217 99.2879C83.3296 99.9274 82.4938 100.234 81.5144 100.234C81.3447 100.234 81.1749 100.22 80.9921 100.194V94.4786ZM83.9564 96.8499C83.9564 96.2105 83.7736 95.6776 83.421 95.2646C83.0684 94.8516 82.5983 94.5852 82.0107 94.4919V99.0614C82.6505 98.9549 83.1337 98.7017 83.4602 98.2887C83.7866 97.8758 83.9564 97.3962 83.9564 96.8499Z" fill="white"/>
<path d="M83.7475 102.818C84.5832 103.205 85.0011 103.924 85.0011 104.95H83.7736C83.7997 104.364 83.643 103.857 83.3165 103.444C82.9901 103.031 82.4547 102.818 81.7234 102.818H78.1715V101.633H84.8835V102.818H83.7475Z" fill="white"/>
<path d="M85.0533 112.957C85.0533 113.756 84.8052 114.409 84.309 114.888C83.8127 115.368 83.1337 115.608 82.2849 115.608H78.1584V114.422H82.2065C82.755 114.422 83.1729 114.276 83.4732 113.969C83.7736 113.663 83.9172 113.25 83.9172 112.717C83.9172 112.117 83.7344 111.651 83.3687 111.278C83.0031 110.918 82.4547 110.732 81.6973 110.732H78.1454V109.546H84.8574V110.732H83.8911C84.6746 111.225 85.0533 111.957 85.0533 112.957Z" fill="white"/>
<path d="M84.8835 122.935V124.121H78.1715V122.935H79.3206C78.4326 122.335 77.9886 121.483 77.9886 120.35C77.9886 119.391 78.3282 118.579 79.0203 117.899C79.6993 117.22 80.5351 116.887 81.5275 116.887C82.5199 116.887 83.3426 117.22 84.0347 117.899C84.7138 118.579 85.0663 119.391 85.0663 120.35C85.0663 121.483 84.6224 122.349 83.7344 122.935H84.8835ZM79.1247 120.497C79.1247 121.19 79.3598 121.776 79.8168 122.242C80.2739 122.708 80.8485 122.935 81.5275 122.935C82.2065 122.935 82.7811 122.708 83.2382 122.242C83.6952 121.776 83.9303 121.203 83.9303 120.497C83.9303 119.818 83.6952 119.231 83.2382 118.778C82.7811 118.325 82.2065 118.086 81.5275 118.086C80.8485 118.086 80.2739 118.312 79.8168 118.778C79.3467 119.245 79.1247 119.818 79.1247 120.497Z" fill="white"/>
<path d="M85.0533 133.326C85.0533 134.099 84.8052 134.712 84.322 135.191C83.8388 135.671 83.1729 135.898 82.3371 135.898H78.1584V134.712H82.2979C82.8203 134.712 83.2251 134.579 83.4993 134.299C83.7866 134.019 83.9303 133.659 83.9303 133.206C83.9303 132.7 83.7605 132.287 83.434 131.981C83.1076 131.674 82.5852 131.528 81.8931 131.528H78.1584V130.342H82.2979C82.8203 130.342 83.2251 130.209 83.4993 129.956C83.7866 129.689 83.9303 129.343 83.9303 128.89C83.9303 128.384 83.7605 127.971 83.421 127.638C83.0815 127.305 82.5722 127.131 81.8931 127.131H78.1584V125.946H84.8705V127.131H83.9694C84.6876 127.598 85.0402 128.277 85.0402 129.17C85.0402 130.089 84.6615 130.768 83.9041 131.181C84.6746 131.648 85.0533 132.367 85.0533 133.326Z" fill="white"/>
<path d="M80.9921 138.402C80.3914 138.522 79.9213 138.802 79.5948 139.241C79.2684 139.681 79.0986 140.227 79.0986 140.88C79.0986 141.786 79.4251 142.439 80.078 142.852L79.5165 143.864C78.511 143.198 78.0017 142.199 78.0017 140.853C78.0017 139.761 78.3282 138.882 79.0072 138.202C79.6862 137.523 80.522 137.176 81.5406 137.176C82.5461 137.176 83.3949 137.51 84.0608 138.176C84.7268 138.842 85.0663 139.708 85.0663 140.76C85.0663 141.759 84.7138 142.585 84.0217 143.211C83.3296 143.851 82.4938 144.157 81.5144 144.157C81.3447 144.157 81.1749 144.144 80.9921 144.117V138.402ZM83.9564 140.76C83.9564 140.121 83.7736 139.588 83.421 139.175C83.0684 138.762 82.5983 138.495 82.0107 138.402V142.972C82.6505 142.865 83.1337 142.612 83.4602 142.199C83.7866 141.786 83.9564 141.306 83.9564 140.76Z" fill="white"/>
<path d="M64.669 38.4984V41.3893H50.3047V39.1911L59.093 32.903H50.3047V30.0121H64.669V32.2102L55.9198 38.4984H64.669Z" fill="white"/>
<path d="M51.5844 52.8998C50.5397 51.8206 50.0174 50.5151 50.0174 48.9564C50.0174 47.411 50.5397 46.0921 51.5844 45.0263C52.6291 43.9605 53.9088 43.4276 55.4366 43.4276C56.9514 43.4276 58.2442 43.9605 59.2889 45.0263C60.3336 46.0921 60.8559 47.3977 60.8559 48.9564C60.8559 50.5017 60.3336 51.8206 59.2889 52.8998C58.2442 53.9789 56.9645 54.5117 55.4366 54.5117C53.9088 54.5251 52.6291 53.9789 51.5844 52.8998ZM53.3995 46.9447C52.8641 47.4776 52.6029 48.157 52.6029 48.9697C52.6029 49.7823 52.8641 50.4618 53.3995 51.008C53.9349 51.5542 54.6139 51.8206 55.4366 51.8206C56.2593 51.8206 56.9384 51.5542 57.4738 51.008C58.0092 50.4618 58.2703 49.7823 58.2703 48.9697C58.2703 48.157 58.0092 47.4909 57.4738 46.9447C56.9384 46.4118 56.2593 46.132 55.4366 46.132C54.6139 46.132 53.9349 46.4118 53.3995 46.9447Z" fill="white"/>
<path d="M60.8559 68.0072C60.8559 69.2062 60.4772 70.1654 59.7068 70.8848C58.9363 71.6042 57.9178 71.9639 56.625 71.9639H50.3046V69.2595H56.4421C57.0559 69.2595 57.5391 69.0997 57.8786 68.7932C58.2181 68.4868 58.3879 68.0472 58.3879 67.501C58.3879 66.8882 58.192 66.4086 57.7872 66.0622C57.3824 65.7158 56.8208 65.5559 56.0635 65.5559H50.2916V62.8515H56.4291C57.0428 62.8515 57.526 62.6916 57.8655 62.3852C58.205 62.0788 58.3748 61.6392 58.3748 61.093C58.3748 60.4935 58.1789 60.0139 57.7741 59.6542C57.3693 59.2945 56.8078 59.1213 56.0504 59.1213H50.2785V56.4168H60.5425V59.1213H59.4587C60.3728 59.7474 60.8298 60.7199 60.8298 62.0255C60.8298 63.3045 60.3336 64.2637 59.3542 64.8765C60.3597 65.5826 60.8559 66.6217 60.8559 68.0072Z" fill="white"/>
<path d="M60.5686 82.2221V84.9265H50.3047V82.2221H51.5061C50.5006 81.4094 50.0043 80.277 50.0043 78.8116C50.0043 77.4127 50.5267 76.2137 51.5714 75.2146C52.616 74.2154 53.8958 73.7225 55.4236 73.7225C56.9384 73.7225 58.2312 74.2287 59.2759 75.2146C60.3205 76.2137 60.8429 77.4127 60.8429 78.8116C60.8429 80.277 60.3467 81.4228 59.3411 82.2221H60.5686ZM53.3473 77.2396C52.8119 77.7858 52.5377 78.4785 52.5377 79.3178C52.5377 80.1571 52.8119 80.8499 53.3473 81.3961C53.8827 81.9423 54.5879 82.2221 55.4367 82.2221C56.2855 82.2221 56.9776 81.9423 57.526 81.3961C58.0614 80.8366 58.3356 80.1438 58.3356 79.3178C58.3356 78.4918 58.0614 77.7858 57.526 77.2396C56.9906 76.6933 56.2855 76.4269 55.4367 76.4269C54.5879 76.4269 53.8958 76.6933 53.3473 77.2396Z" fill="white"/>
<path d="M60.8559 93.1996C60.8559 94.3454 60.4772 95.2912 59.7198 96.0373C58.9624 96.7833 57.9308 97.1564 56.5988 97.1564H50.2916V94.4519H56.2724C56.9514 94.4519 57.4738 94.2654 57.8394 93.8924C58.2051 93.5194 58.3879 93.0131 58.3879 92.387C58.3879 91.6942 58.1789 91.1347 57.748 90.7084C57.3171 90.2954 56.6903 90.0822 55.8415 90.0822H50.2916V87.3778H60.5556V90.0822H59.4064C60.3728 90.735 60.8559 91.7742 60.8559 93.1996Z" fill="white"/>
<path d="M64.669 119.178H50.3047V116.3H59.6284L52.9555 112.171L52.9425 111.838L59.5893 107.721H50.3047V104.83H64.669V107.801L57.8786 112.011L64.669 116.194V119.178V119.178Z" fill="white"/>
<path d="M60.5686 129.729V132.434H50.3047V129.729H51.5061C50.5006 128.917 50.0043 127.784 50.0043 126.319C50.0043 124.92 50.5267 123.721 51.5714 122.722C52.616 121.723 53.8958 121.23 55.4236 121.23C56.9384 121.23 58.2312 121.736 59.2759 122.722C60.3205 123.721 60.8429 124.92 60.8429 126.319C60.8429 127.784 60.3467 128.93 59.3411 129.729H60.5686ZM53.3473 124.747C52.8119 125.293 52.5377 125.986 52.5377 126.825C52.5377 127.664 52.8119 128.357 53.3473 128.903C53.8827 129.45 54.5879 129.729 55.4367 129.729C56.2855 129.729 56.9776 129.45 57.526 128.903C58.0614 128.344 58.3356 127.651 58.3356 126.825C58.3356 125.999 58.0614 125.293 57.526 124.747C56.9906 124.201 56.2855 123.934 55.4367 123.934C54.5879 123.934 53.8958 124.201 53.3473 124.747Z" fill="white"/>
<path d="M60.8559 140.707C60.8559 141.853 60.4772 142.798 59.7198 143.545C58.9624 144.291 57.9308 144.664 56.5988 144.664H50.2916V141.959H56.2724C56.9514 141.959 57.4738 141.773 57.8394 141.4C58.2051 141.027 58.3879 140.52 58.3879 139.894C58.3879 139.201 58.1789 138.642 57.748 138.216C57.3171 137.803 56.6903 137.589 55.8415 137.589H50.2916V134.885H60.5556V137.589H59.4064C60.3728 138.242 60.8559 139.281 60.8559 140.707Z" fill="white"/>
<path d="M52.7858 150.139V154.789H50.3047V146.529H52.0676L58.0875 150.938V146.729H60.5687V154.575H58.8058L52.7858 150.139Z" fill="white"/>
<path d="M51.5844 165.06C50.5397 163.981 50.0174 162.675 50.0174 161.117C50.0174 159.571 50.5397 158.252 51.5844 157.187C52.6291 156.121 53.9088 155.588 55.4366 155.588C56.9514 155.588 58.2442 156.121 59.2889 157.187C60.3336 158.252 60.8559 159.558 60.8559 161.117C60.8559 162.662 60.3336 163.981 59.2889 165.06C58.2442 166.139 56.9645 166.672 55.4366 166.672C53.9088 166.672 52.6291 166.139 51.5844 165.06ZM53.3995 159.105C52.8641 159.638 52.6029 160.317 52.6029 161.13C52.6029 161.943 52.8641 162.622 53.3995 163.168C53.9349 163.714 54.6139 163.981 55.4366 163.981C56.2593 163.981 56.9384 163.714 57.4738 163.168C58.0092 162.622 58.2703 161.943 58.2703 161.13C58.2703 160.317 58.0092 159.651 57.4738 159.105C56.9384 158.572 56.2593 158.292 55.4366 158.292C54.6139 158.292 53.9349 158.572 53.3995 159.105Z" fill="white"/>
<path d="M51.5844 177.503C50.5397 176.424 50.0174 175.118 50.0174 173.56C50.0174 172.014 50.5397 170.695 51.5844 169.63C52.6291 168.564 53.9088 168.031 55.4366 168.031C56.9514 168.031 58.2442 168.564 59.2889 169.63C60.3336 170.695 60.8559 172.001 60.8559 173.56C60.8559 175.105 60.3336 176.424 59.2889 177.503C58.2442 178.582 56.9645 179.115 55.4366 179.115C53.9088 179.115 52.6291 178.582 51.5844 177.503ZM53.3995 171.548C52.8641 172.081 52.6029 172.76 52.6029 173.573C52.6029 174.386 52.8641 175.065 53.3995 175.611C53.9349 176.157 54.6139 176.424 55.4366 176.424C56.2593 176.424 56.9384 176.157 57.4738 175.611C58.0092 175.065 58.2703 174.386 58.2703 173.573C58.2703 172.76 58.0092 172.094 57.4738 171.548C56.9384 171.015 56.2593 170.735 55.4366 170.735C54.6139 170.735 53.9349 171.015 53.3995 171.548Z" fill="white"/>
<path d="M58.8057 183.725C59.4587 183.978 59.9549 184.391 60.2814 184.964C60.6078 185.55 60.7776 186.189 60.7776 186.909H57.8264C57.9178 186.083 57.7611 185.35 57.3301 184.697C56.8992 184.044 56.194 183.725 55.2147 183.725H50.3047V181.02H60.5686V183.725H58.8057Z" fill="white"/>
<path d="M74.4498 265.07V269.52H73.2745V263.791H82.6636V269.453H81.4883V265.07H78.6024V269.107H77.4402V265.07H74.4498Z" fill="white"/>
<path d="M73.2615 276.874V275.475L75.7948 273.557L73.2615 271.638V270.239L76.722 272.864L79.9735 270.399V271.811L77.6491 273.57L79.9735 275.342V276.741L76.722 274.276L73.2615 276.874Z" fill="white"/>
<path d="M80.1433 281.763C80.1433 282.722 79.8038 283.535 79.1117 284.215C78.4196 284.894 77.5969 285.227 76.6044 285.227C75.612 285.227 74.7893 284.894 74.0972 284.215C73.4182 283.535 73.0656 282.722 73.0656 281.763C73.0656 280.631 73.5096 279.765 74.3975 279.179H70.5583V277.993H79.9474V279.179H78.7983C79.6993 279.765 80.1433 280.631 80.1433 281.763ZM74.2147 281.617C74.2147 282.296 74.4498 282.882 74.9068 283.335C75.3639 283.802 75.9384 284.028 76.6175 284.028C77.2965 284.028 77.8711 283.802 78.3282 283.335C78.7852 282.869 79.0202 282.296 79.0202 281.617C79.0202 280.924 78.7852 280.338 78.3282 279.871C77.8711 279.405 77.2965 279.179 76.6175 279.179C75.9384 279.179 75.3639 279.405 74.9068 279.871C74.4498 280.338 74.2147 280.924 74.2147 281.617Z" fill="white"/>
<path d="M81.201 287.252C81.201 287.026 81.2794 286.826 81.423 286.679C81.5797 286.519 81.7625 286.453 81.9715 286.453C82.1935 286.453 82.3763 286.533 82.533 286.679C82.6897 286.839 82.768 287.026 82.768 287.252C82.768 287.465 82.6897 287.652 82.533 287.812C82.3763 287.971 82.1935 288.038 81.9715 288.038C81.7625 288.038 81.5797 287.958 81.423 287.812C81.2663 287.665 81.201 287.478 81.201 287.252ZM73.2615 286.652H79.9735V287.838H73.2615V286.652Z" fill="white"/>
<path d="M78.8505 290.849C79.6863 291.235 80.1041 291.955 80.1041 292.981H78.8766C78.9027 292.394 78.746 291.888 78.4196 291.475C78.0931 291.062 77.5577 290.849 76.8264 290.849H73.2745V289.663H79.9866V290.849H78.8505Z" fill="white"/>
<path d="M79.9735 299.082V300.361L72.8436 297.563C72.0862 297.27 71.4986 296.857 71.1068 296.338C70.7151 295.818 70.5322 295.205 70.5714 294.526H71.6553C71.59 295.365 72.047 295.978 73.0264 296.364L73.2745 296.498L79.9604 293.513V294.792L74.8154 297.071L79.9735 299.082Z" fill="white"/>
<path d="M82.6636 308.648C82.6636 309.953 82.2065 311.032 81.3055 311.898C80.4045 312.764 79.2814 313.19 77.9756 313.19C76.6567 313.19 75.5467 312.764 74.6457 311.898C73.7446 311.032 73.2876 309.953 73.2876 308.648V304.904H82.6766V308.648H82.6636ZM74.4498 308.648C74.4498 309.62 74.7893 310.419 75.4553 311.046C76.1213 311.672 76.9701 311.978 77.9625 311.978C78.968 311.978 79.8038 311.672 80.4697 311.046C81.1357 310.419 81.4752 309.62 81.4752 308.648V306.183H74.4367V308.648H74.4498Z" fill="white"/>
<path d="M79.9735 320.278V321.464H73.2615V320.278H74.4106C73.5226 319.678 73.0786 318.826 73.0786 317.693C73.0786 316.734 73.4182 315.922 74.1103 315.242C74.7893 314.563 75.625 314.23 76.6175 314.23C77.6099 314.23 78.4326 314.563 79.1247 315.242C79.8038 315.922 80.1563 316.734 80.1563 317.693C80.1563 318.826 79.7123 319.692 78.8244 320.278H79.9735ZM74.2147 317.84C74.2147 318.533 74.4498 319.119 74.9068 319.585C75.3639 320.051 75.9384 320.278 76.6175 320.278C77.2965 320.278 77.8711 320.051 78.3282 319.585C78.7852 319.119 79.0202 318.546 79.0202 317.84C79.0202 317.16 78.7852 316.574 78.3282 316.121C77.8711 315.668 77.2965 315.429 76.6175 315.429C75.9384 315.429 75.3639 315.655 74.9068 316.121C74.4498 316.588 74.2147 317.16 74.2147 317.84Z" fill="white"/>
<path d="M78.8505 327.006V325.181H75.2072C74.8807 325.181 74.6457 325.247 74.502 325.38C74.3584 325.514 74.2931 325.713 74.28 325.993C74.28 326.273 74.28 326.606 74.3062 327.006H73.2615C73.1309 325.967 73.2093 325.207 73.5096 324.714C73.8099 324.235 74.3714 323.995 75.2072 323.995H78.8505V322.636H79.9735V323.995H81.5014L81.8539 325.181H79.9735V327.006H78.8505Z" fill="white"/>
<path d="M76.0821 328.911C75.4814 329.031 75.0113 329.31 74.6848 329.75C74.3584 330.19 74.1886 330.736 74.1886 331.389C74.1886 332.295 74.5151 332.947 75.168 333.36L74.6065 334.373C73.601 333.707 73.0917 332.708 73.0917 331.362C73.0917 330.27 73.4182 329.39 74.0972 328.711C74.7763 328.031 75.612 327.685 76.6306 327.685C77.6361 327.685 78.4849 328.018 79.1508 328.684C79.8168 329.35 80.1563 330.216 80.1563 331.269C80.1563 332.268 79.8038 333.094 79.1117 333.72C78.4196 334.36 77.5838 334.666 76.6044 334.666C76.4347 334.666 76.2649 334.653 76.0821 334.626V328.911V328.911ZM79.0464 331.269C79.0464 330.629 78.8636 330.096 78.511 329.683C78.1584 329.27 77.6883 329.004 77.1007 328.911V333.48C77.7405 333.374 78.2237 333.121 78.5501 332.708C78.8766 332.308 79.0464 331.828 79.0464 331.269Z" fill="white"/>
<path d="M47.1575 273.543C45.7995 272.557 45.1204 271.159 45.1204 269.373C45.1204 267.588 45.7995 266.203 47.1575 265.204C48.5156 264.218 50.3177 263.712 52.5768 263.712C54.8359 263.712 56.638 264.204 57.9961 265.204C59.3542 266.189 60.0332 267.588 60.0332 269.373C60.0332 271.159 59.3542 272.544 57.9961 273.543C56.638 274.529 54.8359 275.035 52.5768 275.035C50.3177 275.035 48.5156 274.529 47.1575 273.543ZM48.4503 266.629C47.484 267.269 46.9878 268.188 46.9878 269.373C46.9878 270.559 47.471 271.478 48.4503 272.131C49.4297 272.784 50.8009 273.104 52.5768 273.104C54.3528 273.104 55.737 272.784 56.7164 272.131C57.6957 271.478 58.1789 270.559 58.1789 269.373C58.1789 268.188 57.6957 267.269 56.7164 266.629C55.737 265.99 54.3658 265.67 52.5638 265.67C50.8009 265.67 49.4297 265.99 48.4503 266.629Z" fill="white"/>
<path d="M45.3947 276.448H46.9617L52.1328 281.617C53.4909 283.002 54.6531 283.695 55.6194 283.695C56.4291 283.695 57.0559 283.442 57.5129 282.936C57.97 282.429 58.192 281.817 58.192 281.097C58.192 279.712 57.5521 278.712 56.2593 278.086L57.1995 276.448C58.1267 276.914 58.8318 277.553 59.315 278.366C59.7981 279.179 60.0332 280.085 60.0332 281.084C60.0332 282.309 59.6414 283.375 58.8449 284.294C58.0483 285.2 56.9775 285.653 55.6456 285.653C54.1961 285.653 52.616 284.787 50.9053 283.042L47.249 279.299V285.92H45.3947V276.448V276.448Z" fill="white"/>
<path d="M43.3706 288.624L43.3445 287.532L61.7961 295.911L61.8222 297.004L43.3706 288.624Z" fill="white"/>
<path d="M53.8827 304.411C53.6737 305.53 53.2036 306.449 52.4593 307.155C51.715 307.875 50.7748 308.221 49.6387 308.221C48.2414 308.221 47.1445 307.728 46.3348 306.756C45.5252 305.783 45.1204 304.598 45.1204 303.199C45.1204 302.08 45.3685 301.094 45.8647 300.228C46.361 299.362 47.0922 298.749 48.0325 298.389L48.9727 300.028C47.6407 300.468 46.9878 301.52 46.9878 303.212C46.9878 304.118 47.2228 304.864 47.6799 305.437C48.1369 306.01 48.7899 306.29 49.6256 306.29C50.4613 306.29 51.1143 306.01 51.5844 305.437C52.0545 304.864 52.2895 304.118 52.2895 303.212V302.706L53.4648 301.933L57.9569 305.33V298.816H59.7459V307.608L58.0745 307.595L53.8827 304.411Z" fill="white"/>
<path d="M47.1575 319.772C45.7995 318.786 45.1204 317.387 45.1204 315.602C45.1204 313.817 45.7995 312.431 47.1575 311.432C48.5156 310.446 50.3177 309.94 52.5768 309.94C54.8359 309.94 56.638 310.433 57.9961 311.432C59.3542 312.418 60.0332 313.817 60.0332 315.602C60.0332 317.387 59.3542 318.773 57.9961 319.772C56.638 320.758 54.8359 321.264 52.5768 321.264C50.3177 321.264 48.5156 320.758 47.1575 319.772ZM48.4503 312.857C47.484 313.497 46.9878 314.416 46.9878 315.602C46.9878 316.787 47.471 317.707 48.4503 318.36C49.4297 319.012 50.8009 319.332 52.5768 319.332C54.3528 319.332 55.737 319.012 56.7164 318.36C57.6957 317.707 58.1789 316.787 58.1789 315.602C58.1789 314.416 57.6957 313.497 56.7164 312.857C55.737 312.218 54.3658 311.898 52.5638 311.898C50.8009 311.885 49.4297 312.218 48.4503 312.857Z" fill="white"/>
<path d="M54.6662 416.878V412.708C54.6662 411.416 54.3136 410.43 53.06 409.87L35.2482 401.85V407.526C35.2482 407.526 37.6379 408.458 38.1603 408.671V415.599C37.4812 415.772 35.2482 416.252 35.2482 416.252V421.274L54.6662 416.878ZM42.1301 410.217C43.2531 410.656 47.5624 412.348 47.5624 412.348C47.5624 412.348 48.7115 412.814 49.4167 413.081L47.7321 413.441C47.7321 413.441 43.1095 414.493 42.1301 414.693V410.217Z" fill="white"/>
<path d="M49.2861 394.656C48.372 394.643 47.7713 395.815 46.8703 397.694C45.4861 400.811 43.8015 402.25 41.5816 402.223C37.5465 402.183 34.9479 398.506 34.9479 392.818C34.974 390.406 35.4572 388.062 35.9795 386.809L40.341 387.569L40.0276 388.261C39.3094 390.02 39.0091 391.179 39.0091 393.351C39.0091 394.896 39.6098 396.561 40.9026 396.575C41.7644 396.588 42.3782 395.882 43.3314 393.777C44.2586 391.725 45.8126 389.008 48.6071 389.034C52.381 389.061 55.0188 392.831 55.0188 398.16C55.0188 400.252 54.6009 401.943 54.1961 403.009L49.9913 402.277L50.2133 401.797C50.605 400.798 50.9837 399.519 50.9576 397.76C50.9576 395.642 50.0827 394.656 49.2861 394.656Z" fill="white"/>
<path d="M54.6793 386.809L35.2613 383.412V378.03L54.6793 381.401V386.809Z" fill="white"/>
<path d="M44.6761 367.412C49.1682 365.614 52.9029 361.311 54.4568 354.783L54.8486 354.849V363.229C54.8094 364.361 54.4569 365.267 53.2685 365.587L44.6761 367.412Z" fill="white"/>
<path d="M54.6662 379.216L35.2744 370.703V364.988L51.4669 360.152C49.2861 363.629 45.8256 366.586 43.4228 367.625L41.4249 368.198L54.6793 373.487V379.216H54.6662Z" fill="white"/>
<path d="M210.415 71.7375V35.7406C210.415 33.4359 212.269 31.5441 214.528 31.5441L240.658 31.5441C242.917 31.5441 244.772 33.4359 244.772 35.7406V71.7375C244.772 74.0422 242.917 75.934 240.658 75.934H214.528C212.269 75.9473 210.415 74.0555 210.415 71.7375Z" fill="#F6C859"/>
<path d="M214.998 48.6366C214.998 48.4501 215.103 48.2636 215.273 48.1837C215.521 48.0504 215.821 48.157 215.952 48.4101C216.33 49.1562 217.022 50.1687 218.237 50.7549C219.778 51.5009 221.449 51.3011 221.593 50.9946C221.632 50.9147 221.475 50.6083 221.384 50.4218C221.136 49.9289 220.809 49.2628 221.071 48.4901C221.332 47.7307 221.998 47.3577 222.311 47.1712C224.4 46.0121 229.846 45.6524 232.536 46.8781C233.437 47.2911 233.959 47.8373 234.129 48.53C234.286 49.2361 233.998 49.809 233.763 50.2619C233.567 50.6349 233.489 50.8348 233.554 50.9547C233.842 51.4343 235.565 51.421 236.937 50.7549C238.151 50.1687 238.856 49.1562 239.222 48.4101C239.352 48.157 239.653 48.0638 239.901 48.1837C240.149 48.3169 240.24 48.6233 240.123 48.8764C239.679 49.7557 238.843 50.968 237.367 51.6741C235.918 52.3802 233.424 52.7132 232.693 51.4743C232.327 50.8481 232.627 50.2619 232.862 49.7823C233.058 49.4226 233.215 49.0896 233.15 48.7565C233.045 48.3036 232.536 47.9971 232.131 47.8106C229.767 46.7315 224.635 47.0379 222.794 48.0638C222.481 48.2369 222.141 48.4501 222.024 48.8098C221.906 49.1562 222.05 49.4759 222.285 49.9422C222.507 50.3951 222.768 50.9014 222.507 51.4343C221.958 52.58 219.53 52.5134 217.806 51.6741C216.343 50.968 215.495 49.7557 215.051 48.8764C215.011 48.7965 214.998 48.7165 214.998 48.6366Z" fill="#7D662D"/>
<path d="M231.622 47.0912V37.8322C231.622 37.5525 231.844 37.3127 232.131 37.3127C232.405 37.3127 232.64 37.5391 232.64 37.8322V47.0912C232.64 47.371 232.418 47.6108 232.131 47.6108C231.844 47.6108 231.622 47.371 231.622 47.0912Z" fill="#7D662D"/>
<path d="M222.546 47.0912V37.8322C222.546 37.5525 222.768 37.3127 223.055 37.3127C223.33 37.3127 223.565 37.5391 223.565 37.8322V47.0912C223.565 47.371 223.343 47.6108 223.055 47.6108C222.781 47.6108 222.546 47.371 222.546 47.0912Z" fill="#7D662D"/>
<path d="M214.998 59.4276C214.998 59.3477 215.011 59.2678 215.05 59.1878C215.494 58.3086 216.33 57.0963 217.806 56.3902C219.53 55.5509 221.958 55.4843 222.507 56.63C222.755 57.1629 222.507 57.6691 222.285 58.1221C222.05 58.5883 221.906 58.9081 222.024 59.2545C222.154 59.6408 222.559 59.8673 222.794 60.0005C224.635 61.0263 229.767 61.3327 232.131 60.2536C232.536 60.0671 233.045 59.7474 233.15 59.3077C233.215 59.028 233.489 58.8548 233.75 58.9214C234.024 58.988 234.194 59.2678 234.129 59.5342C233.972 60.227 233.437 60.7865 232.536 61.1862C229.833 62.4118 224.4 62.0655 222.311 60.8931C221.998 60.7199 221.332 60.3469 221.07 59.5875C220.809 58.8148 221.136 58.1354 221.384 57.6558C221.475 57.4693 221.632 57.1495 221.593 57.0829C221.449 56.7765 219.778 56.5767 218.237 57.3227C217.022 57.9089 216.317 58.9214 215.951 59.6674C215.821 59.9206 215.521 60.0138 215.272 59.8939C215.09 59.8007 214.998 59.6142 214.998 59.4276Z" fill="#7D662D"/>
<path d="M233.633 57.376C233.633 57.1629 233.763 56.963 233.972 56.8831C237.211 55.7773 239.705 58.3619 240.123 59.1879C240.253 59.441 240.149 59.7474 239.901 59.8806C239.653 60.0138 239.352 59.9073 239.222 59.6541C239.039 59.2811 237.041 56.9097 234.286 57.8556C234.024 57.9489 233.737 57.8023 233.646 57.5359C233.646 57.4826 233.633 57.4293 233.633 57.376Z" fill="#7D662D"/>
<path d="M231.622 70.232V60.973C231.622 60.6933 231.844 60.4535 232.131 60.4535C232.405 60.4535 232.64 60.6799 232.64 60.973V70.232C232.64 70.5118 232.418 70.7516 232.131 70.7516C231.844 70.7383 231.622 70.5118 231.622 70.232Z" fill="#7D662D"/>
<path d="M222.546 70.232V60.973C222.546 60.6933 222.768 60.4535 223.055 60.4535C223.33 60.4535 223.565 60.6799 223.565 60.973V70.232C223.565 70.5118 223.343 70.7516 223.055 70.7516C222.781 70.7383 222.546 70.5118 222.546 70.232Z" fill="#7D662D"/>
</g>
<defs>
<linearGradient id="paint0_linear_3_170" x1="-32.0394" y1="49.1755" x2="319.51" y2="393.764" gradientUnits="userSpaceOnUse">
<stop stop-color="#F7931E"/>
<stop offset="1" stop-color="#ED1E79"/>
</linearGradient>
<linearGradient id="paint1_linear_3_170" x1="-31.6272" y1="49.2037" x2="319.919" y2="393.789" gradientUnits="userSpaceOnUse">
<stop stop-color="#ED1C24"/>
<stop offset="1" stop-color="#4F339A"/>
</linearGradient>
<linearGradient id="paint2_linear_3_170" x1="-32.482" y1="49.2672" x2="317.269" y2="394.227" gradientUnits="userSpaceOnUse">
<stop stop-color="#ED1C24"/>
<stop offset="1" stop-color="#4F339A"/>
</linearGradient>
<linearGradient id="paint3_linear_3_170" x1="183.201" y1="156.192" x2="347.142" y2="342.16" gradientUnits="userSpaceOnUse">
<stop stop-color="#ED1E79"/>
<stop offset="1" stop-color="#662D91"/>
</linearGradient>
<linearGradient id="paint4_linear_3_170" x1="189.748" y1="209.599" x2="353.689" y2="395.567" gradientUnits="userSpaceOnUse">
<stop stop-color="#ED1E79"/>
<stop offset="1" stop-color="#662D91"/>
</linearGradient>
<linearGradient id="paint5_linear_3_170" x1="152.123" y1="186.231" x2="316.063" y2="372.199" gradientUnits="userSpaceOnUse">
<stop stop-color="#ED1E79"/>
<stop offset="1" stop-color="#662D91"/>
</linearGradient>
<linearGradient id="paint6_linear_3_170" x1="122.681" y1="224.614" x2="286.621" y2="410.582" gradientUnits="userSpaceOnUse">
<stop stop-color="#ED1E79"/>
<stop offset="1" stop-color="#662D91"/>
</linearGradient>
<linearGradient id="paint7_linear_3_170" x1="157.031" y1="204.589" x2="320.972" y2="390.557" gradientUnits="userSpaceOnUse">
<stop stop-color="#ED1E79"/>
<stop offset="1" stop-color="#662D91"/>
</linearGradient>
<linearGradient id="paint8_linear_3_170" x1="168.483" y1="219.611" x2="332.424" y2="405.578" gradientUnits="userSpaceOnUse">
<stop stop-color="#ED1E79"/>
<stop offset="1" stop-color="#662D91"/>
</linearGradient>
<linearGradient id="paint9_linear_3_170" x1="101.409" y1="124.476" x2="265.35" y2="310.444" gradientUnits="userSpaceOnUse">
<stop stop-color="#ED1E79"/>
<stop offset="1" stop-color="#662D91"/>
</linearGradient>
<linearGradient id="paint10_linear_3_170" x1="117.774" y1="241.303" x2="281.715" y2="427.272" gradientUnits="userSpaceOnUse">
<stop stop-color="#ED1E79"/>
<stop offset="1" stop-color="#662D91"/>
</linearGradient>
<linearGradient id="paint11_linear_3_170" x1="85.0528" y1="152.847" x2="248.993" y2="338.815" gradientUnits="userSpaceOnUse">
<stop stop-color="#ED1E79"/>
<stop offset="1" stop-color="#662D91"/>
</linearGradient>
<linearGradient id="paint12_linear_3_170" x1="47.4313" y1="191.23" x2="211.372" y2="377.198" gradientUnits="userSpaceOnUse">
<stop stop-color="#ED1E79"/>
<stop offset="1" stop-color="#662D91"/>
</linearGradient>
<linearGradient id="paint13_linear_3_170" x1="127.589" y1="237.966" x2="291.529" y2="423.934" gradientUnits="userSpaceOnUse">
<stop stop-color="#ED1E79"/>
<stop offset="1" stop-color="#662D91"/>
</linearGradient>
<linearGradient id="paint14_linear_3_170" x1="152.129" y1="298.05" x2="316.07" y2="484.018" gradientUnits="userSpaceOnUse">
<stop stop-color="#ED1E79"/>
<stop offset="1" stop-color="#662D91"/>
</linearGradient>
<linearGradient id="paint15_linear_3_170" x1="112.866" y1="224.614" x2="276.806" y2="410.582" gradientUnits="userSpaceOnUse">
<stop stop-color="#ED1E79"/>
<stop offset="1" stop-color="#662D91"/>
</linearGradient>
<linearGradient id="paint16_linear_3_170" x1="107.963" y1="303.053" x2="271.904" y2="489.022" gradientUnits="userSpaceOnUse">
<stop stop-color="#ED1E79"/>
<stop offset="1" stop-color="#662D91"/>
</linearGradient>
<linearGradient id="paint17_linear_3_170" x1="122.679" y1="197.911" x2="286.619" y2="383.879" gradientUnits="userSpaceOnUse">
<stop stop-color="#ED1E79"/>
<stop offset="1" stop-color="#662D91"/>
</linearGradient>
<linearGradient id="paint18_linear_3_170" x1="134.133" y1="257.994" x2="298.074" y2="443.962" gradientUnits="userSpaceOnUse">
<stop stop-color="#ED1E79"/>
<stop offset="1" stop-color="#662D91"/>
</linearGradient>
<linearGradient id="paint19_linear_3_170" x1="94.8741" y1="264.667" x2="258.815" y2="450.635" gradientUnits="userSpaceOnUse">
<stop stop-color="#ED1E79"/>
<stop offset="1" stop-color="#662D91"/>
</linearGradient>
<linearGradient id="paint20_linear_3_170" x1="75.2467" y1="303.051" x2="239.187" y2="489.02" gradientUnits="userSpaceOnUse">
<stop stop-color="#ED1E79"/>
<stop offset="1" stop-color="#662D91"/>
</linearGradient>
<linearGradient id="paint21_linear_3_170" x1="78.5121" y1="197.908" x2="242.453" y2="383.876" gradientUnits="userSpaceOnUse">
<stop stop-color="#ED1E79"/>
<stop offset="1" stop-color="#662D91"/>
</linearGradient>
<linearGradient id="paint22_linear_3_170" x1="98.1401" y1="167.868" x2="262.081" y2="353.836" gradientUnits="userSpaceOnUse">
<stop stop-color="#ED1E79"/>
<stop offset="1" stop-color="#662D91"/>
</linearGradient>
<linearGradient id="paint23_linear_3_170" x1="-0.0278701" y1="-167.596" x2="163.913" y2="18.3728" gradientUnits="userSpaceOnUse">
<stop stop-color="#ED1E79"/>
<stop offset="1" stop-color="#662D91"/>
</linearGradient>
<linearGradient id="paint24_linear_3_170" x1="6.51849" y1="-114.189" x2="170.459" y2="71.7789" gradientUnits="userSpaceOnUse">
<stop stop-color="#ED1E79"/>
<stop offset="1" stop-color="#662D91"/>
</linearGradient>
<linearGradient id="paint25_linear_3_170" x1="-31.1065" y1="-137.557" x2="132.834" y2="48.4113" gradientUnits="userSpaceOnUse">
<stop stop-color="#ED1E79"/>
<stop offset="1" stop-color="#662D91"/>
</linearGradient>
<linearGradient id="paint26_linear_3_170" x1="-60.5487" y1="-99.1732" x2="103.392" y2="86.7955" gradientUnits="userSpaceOnUse">
<stop stop-color="#ED1E79"/>
<stop offset="1" stop-color="#662D91"/>
</linearGradient>
<linearGradient id="paint27_linear_3_170" x1="-26.198" y1="-119.198" x2="137.743" y2="66.7699" gradientUnits="userSpaceOnUse">
<stop stop-color="#ED1E79"/>
<stop offset="1" stop-color="#662D91"/>
</linearGradient>
<linearGradient id="paint28_linear_3_170" x1="-14.7465" y1="-104.177" x2="149.194" y2="81.7913" gradientUnits="userSpaceOnUse">
<stop stop-color="#ED1E79"/>
<stop offset="1" stop-color="#662D91"/>
</linearGradient>
<linearGradient id="paint29_linear_3_170" x1="-81.8201" y1="-199.311" x2="82.1207" y2="-13.3431" gradientUnits="userSpaceOnUse">
<stop stop-color="#ED1E79"/>
<stop offset="1" stop-color="#662D91"/>
</linearGradient>
<linearGradient id="paint30_linear_3_170" x1="-65.4552" y1="-82.4842" x2="98.4854" y2="103.484" gradientUnits="userSpaceOnUse">
<stop stop-color="#ED1E79"/>
<stop offset="1" stop-color="#662D91"/>
</linearGradient>
<linearGradient id="paint31_linear_3_170" x1="-98.1765" y1="-170.94" x2="65.764" y2="15.0281" gradientUnits="userSpaceOnUse">
<stop stop-color="#ED1E79"/>
<stop offset="1" stop-color="#662D91"/>
</linearGradient>
<linearGradient id="paint32_linear_3_170" x1="-135.798" y1="-132.557" x2="28.1428" y2="53.4109" gradientUnits="userSpaceOnUse">
<stop stop-color="#ED1E79"/>
<stop offset="1" stop-color="#662D91"/>
</linearGradient>
<linearGradient id="paint33_linear_3_170" x1="-55.6405" y1="-85.8215" x2="108.3" y2="100.147" gradientUnits="userSpaceOnUse">
<stop stop-color="#ED1E79"/>
<stop offset="1" stop-color="#662D91"/>
</linearGradient>
<linearGradient id="paint34_linear_3_170" x1="-31.1" y1="-25.7378" x2="132.841" y2="160.23" gradientUnits="userSpaceOnUse">
<stop stop-color="#ED1E79"/>
<stop offset="1" stop-color="#662D91"/>
</linearGradient>
<linearGradient id="paint35_linear_3_170" x1="-70.3637" y1="-99.174" x2="93.5769" y2="86.7945" gradientUnits="userSpaceOnUse">
<stop stop-color="#ED1E79"/>
<stop offset="1" stop-color="#662D91"/>
</linearGradient>
<linearGradient id="paint36_linear_3_170" x1="-75.2665" y1="-20.7338" x2="88.6743" y2="165.234" gradientUnits="userSpaceOnUse">
<stop stop-color="#ED1E79"/>
<stop offset="1" stop-color="#662D91"/>
</linearGradient>
<linearGradient id="paint37_linear_3_170" x1="-60.5502" y1="-125.876" x2="103.39" y2="60.092" gradientUnits="userSpaceOnUse">
<stop stop-color="#ED1E79"/>
<stop offset="1" stop-color="#662D91"/>
</linearGradient>
<linearGradient id="paint38_linear_3_170" x1="-49.0962" y1="-65.7935" x2="114.845" y2="120.175" gradientUnits="userSpaceOnUse">
<stop stop-color="#ED1E79"/>
<stop offset="1" stop-color="#662D91"/>
</linearGradient>
<linearGradient id="paint39_linear_3_170" x1="-88.3552" y1="-59.1205" x2="75.5854" y2="126.848" gradientUnits="userSpaceOnUse">
<stop stop-color="#ED1E79"/>
<stop offset="1" stop-color="#662D91"/>
</linearGradient>
<linearGradient id="paint40_linear_3_170" x1="-107.983" y1="-20.7361" x2="55.958" y2="165.232" gradientUnits="userSpaceOnUse">
<stop stop-color="#ED1E79"/>
<stop offset="1" stop-color="#662D91"/>
</linearGradient>
<linearGradient id="paint41_linear_3_170" x1="-104.717" y1="-125.879" x2="59.2236" y2="60.0886" gradientUnits="userSpaceOnUse">
<stop stop-color="#ED1E79"/>
<stop offset="1" stop-color="#662D91"/>
</linearGradient>
<linearGradient id="paint42_linear_3_170" x1="-85.0892" y1="-155.919" x2="78.8514" y2="30.0492" gradientUnits="userSpaceOnUse">
<stop stop-color="#ED1E79"/>
<stop offset="1" stop-color="#662D91"/>
</linearGradient>
<clipPath id="clip0_3_170">
<rect width="392.075" height="209.811" fill="white" transform="matrix(0 1 -1 0 244.772 29.1728)"/>
</clipPath>
</defs>
</svg>
