<svg width="317" height="530" viewBox="0 0 317 530" fill="none" xmlns="http://www.w3.org/2000/svg">
<path d="M219.632 516.477L22.989 402.946C10.3365 395.641 6.09895 379.264 13.5307 366.391L211.603 23.3201C219.035 10.4479 235.336 5.92915 247.989 13.2341L444.632 126.766C457.284 134.071 461.522 150.448 454.09 163.32L256.011 506.403C253.352 511.009 249.549 514.555 245.189 516.84C237.392 520.99 227.757 521.168 219.632 516.477Z" fill="url(#paint0_linear_3_322)"/>
<path d="M219.632 516.477L70.32 430.272C77.8197 385.73 106.282 347.071 129.425 347.057C146.391 347.047 147.651 367.769 173.524 377.15C185.791 381.585 196.922 381.07 208.878 378.075C224.932 374.091 242.452 365.627 266.099 358.791C281.302 354.392 318.571 343.616 349.765 344.016L256.018 506.391C253.358 510.997 249.556 514.544 245.178 516.834C237.385 521.001 227.768 521.175 219.632 516.477Z" fill="url(#paint1_linear_3_322)"/>
<path d="M167.875 486.596L22.989 402.946C10.3364 395.641 6.10357 379.282 13.5354 366.409L211.614 23.3267C219.046 10.4545 235.33 5.94078 247.982 13.2458L359.234 77.4771C361.891 87.9698 363.469 99.3629 363.335 111.492C362.957 148.494 346.325 174.865 313.097 226.102C273.067 287.836 259.769 286.131 232.539 330.149C221.327 348.258 214.001 364.039 208.878 378.075C191.714 425.442 200.057 452.948 171.79 482.699C170.529 484.018 169.234 485.317 167.875 486.596Z" fill="url(#paint2_linear_3_322)"/>
<path d="M398.242 260.052C340.982 218.528 322.352 139.997 355.508 75.31L444.632 126.766C457.284 134.071 461.522 150.448 454.09 163.32L398.242 260.052Z" fill="url(#paint3_linear_3_322)"/>
<path opacity="0.33" d="M58.0596 289.291L152.7 125.37L181.421 236.371C183.896 245.974 178.111 255.995 168.557 258.653L58.0596 289.291Z" fill="url(#paint4_linear_3_322)"/>
<path opacity="0.27" d="M25.6783 404.498L23.0003 402.952C10.3477 395.647 6.1102 379.27 13.542 366.398L211.614 23.3266C219.046 10.4544 235.348 5.93566 248 13.2406L338.168 65.2992C337.817 73.7166 336.081 82.6731 332.156 91.5671C323.035 112.161 306.307 122.791 286.378 135.113C248.149 158.742 230.454 155.715 207.144 168.101C162.296 191.927 166.893 235.434 128.811 297.83C100.103 344.828 56.5709 387.208 25.6783 404.498Z" fill="url(#paint5_linear_3_322)"/>
<path opacity="0.53" d="M219.632 516.477L22.989 402.946C10.3365 395.641 6.09895 379.264 13.5307 366.391L211.603 23.3201C219.035 10.4479 235.336 5.92915 247.989 13.2341L444.632 126.766C457.284 134.071 461.522 150.448 454.09 163.32L256.011 506.403C253.352 511.009 249.549 514.555 245.189 516.84C237.392 520.99 227.757 521.168 219.632 516.477Z" fill="url(#paint6_linear_3_322)"/>
<path d="M317.217 163.539L315.288 162.425L317.026 159.704L313.885 160.06L313.865 157.709L317.139 157.752L315.465 154.939L317.491 153.815L318.772 156.679L320.247 153.836L322.176 154.95L320.429 157.635L323.584 157.333L323.624 159.649L320.35 159.606L322.024 162.42L319.979 163.579L318.683 160.66L317.217 163.539Z" fill="white"/>
<path d="M303.127 187.944L301.198 186.83L302.936 184.109L299.795 184.465L299.775 182.115L303.049 182.157L301.375 179.344L303.4 178.22L304.682 181.084L306.157 178.241L308.086 179.355L306.339 182.041L309.494 181.738L309.534 184.054L306.26 184.012L307.934 186.825L305.888 187.984L304.593 185.065L303.127 187.944Z" fill="white"/>
<path d="M294.802 202.363L292.873 201.25L294.611 198.528L291.47 198.885L291.45 196.534L294.724 196.577L293.05 193.763L295.076 192.639L296.357 195.503L297.832 192.66L299.761 193.774L298.014 196.46L301.169 196.157L301.209 198.474L297.935 198.431L299.609 201.244L297.563 202.403L296.268 199.484L294.802 202.363Z" fill="white"/>
<path d="M286.477 216.783L284.548 215.669L286.286 212.947L283.144 213.304L283.125 210.953L286.399 210.996L284.725 208.183L286.75 207.059L288.032 209.923L289.507 207.08L291.436 208.194L289.689 210.879L292.844 210.577L292.884 212.893L289.61 212.85L291.284 215.664L289.238 216.822L287.942 213.904L286.477 216.783Z" fill="white"/>
<path d="M278.159 231.19L276.23 230.077L277.968 227.355L274.826 227.712L274.807 225.361L278.08 225.404L276.406 222.59L278.432 221.466L279.714 224.33L281.189 221.487L283.118 222.601L281.371 225.287L284.526 224.984L284.565 227.301L281.292 227.258L282.966 230.071L280.92 231.23L279.624 228.311L278.159 231.19Z" fill="white"/>
<path d="M264.062 255.607L262.133 254.494L263.87 251.772L260.729 252.129L260.71 249.778L263.983 249.821L262.309 247.007L264.335 245.883L265.617 248.747L267.091 245.905L269.021 247.018L267.273 249.704L270.429 249.401L270.468 251.718L267.195 251.675L268.869 254.488L266.823 255.647L265.527 252.728L264.062 255.607Z" fill="white"/>
<path d="M255.743 270.015L253.814 268.901L255.552 266.18L252.411 266.536L252.391 264.185L255.665 264.228L253.991 261.415L256.017 260.291L257.298 263.155L258.773 260.312L260.702 261.426L258.955 264.111L262.111 263.809L262.15 266.125L258.876 266.082L260.55 268.896L258.505 270.055L257.209 267.136L255.743 270.015Z" fill="white"/>
<path d="M247.419 284.434L245.49 283.32L247.227 280.598L244.086 280.955L244.067 278.604L247.34 278.647L245.666 275.834L247.692 274.71L248.974 277.574L250.449 274.731L252.378 275.845L250.631 278.53L253.786 278.228L253.825 280.544L250.552 280.501L252.226 283.315L250.18 284.473L248.884 281.555L247.419 284.434Z" fill="white"/>
<path d="M239.094 298.853L237.165 297.74L238.902 295.018L235.761 295.375L235.742 293.024L239.015 293.067L237.341 290.253L239.367 289.129L240.649 291.993L242.123 289.151L244.053 290.264L242.305 292.95L245.461 292.647L245.5 294.964L242.227 294.921L243.901 297.734L241.855 298.893L240.559 295.975L239.094 298.853Z" fill="white"/>
<path d="M211.914 303.372L214.206 304.695L217.434 316.688C218.259 319.873 219.385 321.878 220.815 322.703C222.007 323.391 223.139 323.552 224.235 323.2C225.331 322.848 226.18 322.137 226.794 321.075C227.967 319.043 227.878 317.022 226.509 315.016L229.28 313.414C230.267 314.876 230.753 316.419 230.763 318.026C230.774 319.633 230.359 321.163 229.519 322.618C228.479 324.419 226.983 325.648 225.059 326.308C223.123 326.96 221.171 326.726 219.196 325.586C217.063 324.354 215.477 321.73 214.437 317.712L212.224 309.123L206.605 318.855L203.882 317.283L211.914 303.372Z" fill="white"/>
<path d="M208.926 337.374C207.673 338.836 206.201 339.787 204.512 340.197C202.816 340.619 201.131 340.339 199.463 339.376C197.409 338.19 196.2 336.537 195.835 334.418C195.47 332.299 195.886 330.215 197.073 328.16C198.019 326.52 199.222 325.275 200.693 324.431C202.164 323.587 203.739 323.296 205.441 323.571L205.451 326.778C203.132 326.286 201.257 327.281 199.824 329.763C199.057 331.091 198.771 332.373 198.977 333.615C199.171 334.851 199.895 335.823 201.121 336.531C202.347 337.239 203.551 337.38 204.73 336.937C205.909 336.494 206.887 335.611 207.653 334.284L208.08 333.545L210.465 333.398L214.208 342.193L219.726 332.634L222.359 334.154L214.907 347.061L212.429 345.615L208.926 337.374Z" fill="white"/>
<path d="M187.596 360.847L184.964 359.327L186.47 356.718L182.453 354.399L184.106 351.536L188.123 353.855L194.462 342.876L197.094 344.396L207.144 360.481L205.371 363.552L195.321 347.467L190.762 355.364L196.743 358.816L195.09 361.679L189.109 358.227L187.596 360.847Z" fill="white"/>
<path d="M187.357 375.701C186.184 377.733 184.601 379.113 182.614 379.828C180.621 380.555 178.592 380.323 176.515 379.124C174.461 377.938 173.252 376.285 172.887 374.166C172.522 372.046 172.938 369.962 174.124 367.908C175.071 366.268 176.303 365.025 177.821 364.177C179.339 363.33 180.983 363.078 182.751 363.422L182.713 366.632C181.514 366.325 180.422 366.433 179.416 366.945C178.409 367.457 177.557 368.304 176.87 369.493C176.091 370.844 175.798 372.137 176.003 373.379C176.209 374.622 176.922 375.588 178.148 376.295C179.373 377.003 180.578 377.144 181.757 376.701C182.935 376.258 183.907 375.387 184.667 374.071L188.18 367.987L198.706 375.096L191.894 386.895L189.262 385.375L194.567 376.185L189.17 372.561L187.357 375.701Z" fill="white"/>
<path d="M269.881 69.5275C270.607 68.2691 271.616 67.4659 272.906 67.118C274.196 66.77 275.428 66.9425 276.619 67.6304C277.811 68.3183 278.576 69.2989 278.92 70.5903C279.264 71.8817 279.072 73.1566 278.346 74.4149C277.906 75.1769 277.325 75.7647 276.606 76.1966C275.876 76.6219 275.113 76.8431 274.305 76.8538L274.314 75.5811C274.908 75.6007 275.459 75.4575 276.005 75.1414C276.551 74.8253 276.975 74.3779 277.302 73.8122C277.855 72.854 277.995 71.9036 277.747 70.9445C277.492 69.997 276.912 69.2463 276.004 68.7222C275.108 68.2046 274.174 68.0658 273.22 68.3304C272.271 68.5835 271.512 69.1917 270.959 70.1499C270.632 70.7155 270.468 71.3137 270.456 71.9377C270.455 72.5682 270.607 73.1177 270.909 73.6156L269.823 74.2659C269.421 73.5723 269.22 72.7942 269.224 71.9496C269.227 71.105 269.441 70.2894 269.881 69.5275Z" fill="white"/>
<path d="M270.315 82.5853L269.722 83.6128L263.89 80.2453L264.483 79.2178L265.481 79.7944C265.01 78.8293 265.05 77.8677 265.617 76.8864C266.097 76.0552 266.798 75.5214 267.74 75.2798C268.67 75.0317 269.563 75.1624 270.425 75.6603C271.276 76.1517 271.836 76.8596 272.097 77.7956C272.347 78.7251 272.247 79.6062 271.767 80.4374C271.201 81.4187 270.382 81.9463 269.317 82.0088L270.315 82.5853ZM266.542 77.59C266.196 78.1903 266.107 78.8162 266.277 79.438C266.441 80.0714 266.827 80.5559 267.417 80.8966C268.007 81.2372 268.62 81.3293 269.25 81.1545C269.881 80.9797 270.372 80.6012 270.718 80.0009C271.058 79.4122 271.147 78.7863 270.977 78.1644C270.813 77.5311 270.427 77.0466 269.837 76.7059C269.247 76.3652 268.634 76.2732 268.003 76.4479C267.362 76.6162 266.882 77.0012 266.542 77.59Z" fill="white"/>
<path d="M267.246 85.6469C267.779 86.401 267.783 87.2341 267.269 88.123L266.214 87.5137C266.53 87.0189 266.641 86.5131 266.57 85.9799C266.493 85.4582 266.134 85.0049 265.499 84.638L262.412 82.856L263.006 81.8285L268.838 85.196L268.245 86.2235L267.246 85.6469Z" fill="white"/>
<path d="M266.261 95.0062L265.668 96.0337L257.509 91.3232L258.102 90.2957L259.101 90.8722C258.629 89.9072 258.67 88.9456 259.236 87.9643C259.716 87.1331 260.418 86.5992 261.359 86.3577C262.289 86.1096 263.182 86.2403 264.044 86.7382C264.895 87.2296 265.455 87.9375 265.717 88.8735C265.967 89.8029 265.867 90.684 265.387 91.5152C264.82 92.4965 264.001 93.0242 262.936 93.0867L266.261 95.0062ZM260.144 88.6728C259.797 89.2732 259.708 89.8991 259.878 90.5209C260.042 91.1542 260.428 91.6388 261.018 91.9794C261.608 92.3201 262.221 92.4121 262.852 92.2374C263.482 92.0626 263.973 91.6841 264.319 91.0838C264.659 90.495 264.748 89.8691 264.578 89.2473C264.414 88.614 264.028 88.1294 263.438 87.7887C262.848 87.4481 262.235 87.3561 261.605 87.5308C260.97 87.6875 260.49 88.0725 260.144 88.6728Z" fill="white"/>
<path d="M260.022 105.812L259.389 106.909L251.23 102.198L251.863 101.101L255.54 103.224L257.866 99.1951L254.19 97.0724L254.829 95.9641L262.988 100.675L262.348 101.783L258.887 99.7847L256.561 103.814L260.022 105.812Z" fill="white"/>
<path d="M248.115 109.297C247.879 108.344 248.01 107.435 248.51 106.569C249.01 105.703 249.732 105.135 250.675 104.863C251.612 104.604 252.518 104.711 253.38 105.209C254.243 105.707 254.795 106.427 255.032 107.379C255.276 108.32 255.144 109.229 254.638 110.107C254.131 110.984 253.416 111.541 252.473 111.812C251.53 112.084 250.63 111.964 249.768 111.467C248.905 110.969 248.352 110.249 248.115 109.297ZM249.497 107.139C249.157 107.728 249.057 108.347 249.227 108.969C249.391 109.602 249.766 110.08 250.356 110.421C250.946 110.762 251.559 110.854 252.178 110.672C252.808 110.498 253.288 110.113 253.628 109.524C253.968 108.935 254.055 108.339 253.891 107.705C253.727 107.072 253.341 106.587 252.762 106.253C252.172 105.913 251.56 105.821 250.94 106.002C250.31 106.177 249.837 106.55 249.497 107.139Z" fill="white"/>
<path d="M246.145 111.007L254.655 115.92L254.062 116.948L245.551 112.034L246.145 111.007Z" fill="white"/>
<path d="M249.964 123.233L249.371 124.26L241.212 119.55L241.805 118.522L242.804 119.099C242.332 118.134 242.373 117.172 242.94 116.191C243.42 115.36 244.121 114.826 245.063 114.584C245.993 114.336 246.885 114.467 247.748 114.965C248.599 115.456 249.158 116.164 249.42 117.1C249.67 118.029 249.57 118.911 249.09 119.742C248.523 120.723 247.704 121.251 246.639 121.313L249.964 123.233ZM243.854 116.888C243.507 117.488 243.418 118.114 243.588 118.736C243.752 119.369 244.138 119.854 244.728 120.194C245.318 120.535 245.931 120.627 246.562 120.452C247.192 120.278 247.683 119.899 248.029 119.299C248.369 118.71 248.458 118.084 248.288 117.462C248.124 116.829 247.738 116.344 247.148 116.004C246.558 115.663 245.945 115.571 245.315 115.746C244.673 115.914 244.193 116.299 243.854 116.888Z" fill="white"/>
<path d="M242.337 123.262C241.755 123.065 241.207 123.071 240.703 123.288C240.199 123.506 239.779 123.894 239.452 124.459C238.999 125.244 238.956 125.974 239.317 126.659L238.322 127.255C237.782 126.173 237.839 125.052 238.512 123.886C239.059 122.939 239.782 122.341 240.712 122.093C241.631 121.838 242.535 121.976 243.42 122.487C244.294 122.991 244.865 123.706 245.11 124.617C245.356 125.528 245.218 126.449 244.691 127.361C244.191 128.227 243.472 128.766 242.557 128.961C241.636 129.168 240.756 129.014 239.905 128.523C239.757 128.438 239.617 128.341 239.471 128.226L242.337 123.262ZM243.727 126.804C244.047 126.25 244.154 125.697 244.054 125.162C243.955 124.627 243.68 124.16 243.216 123.785L240.929 127.744C241.539 127.973 242.085 127.996 242.576 127.802C243.072 127.596 243.453 127.277 243.727 126.804Z" fill="white"/>
<path d="M240.565 131.86C241.098 132.614 241.102 133.447 240.588 134.336L239.533 133.727C239.849 133.232 239.959 132.726 239.889 132.193C239.812 131.671 239.453 131.218 238.818 130.851L235.731 129.069L236.325 128.042L242.157 131.409L241.564 132.437L240.565 131.86Z" fill="white"/>
<path d="M236.635 141.289C236.235 141.982 235.693 142.423 235.021 142.589C234.35 142.756 233.64 142.623 232.903 142.197L229.328 140.134L229.921 139.106L233.439 141.137C233.916 141.412 234.352 141.495 234.766 141.38C235.181 141.265 235.512 140.979 235.772 140.529C236.072 140.01 236.153 139.502 236.015 139.007C235.878 138.512 235.494 138.075 234.836 137.695L231.75 135.913L232.343 134.886L238.175 138.253L237.582 139.281L236.743 138.796C237.172 139.598 237.128 140.435 236.635 141.289Z" fill="white"/>
<path d="M231.484 149.844L230.89 150.871L225.058 147.504L225.651 146.476L226.65 147.053C226.178 146.088 226.219 145.126 226.785 144.145C227.265 143.314 227.967 142.78 228.908 142.538C229.838 142.29 230.731 142.421 231.593 142.919C232.444 143.41 233.004 144.118 233.266 145.054C233.516 145.984 233.416 146.865 232.936 147.696C232.369 148.677 231.55 149.205 230.485 149.267L231.484 149.844ZM227.71 144.848C227.364 145.449 227.275 146.075 227.445 146.697C227.609 147.33 227.995 147.814 228.585 148.155C229.175 148.496 229.788 148.588 230.418 148.413C231.049 148.238 231.54 147.86 231.886 147.259C232.226 146.671 232.315 146.045 232.145 145.423C231.981 144.79 231.595 144.305 231.005 143.964C230.415 143.624 229.802 143.532 229.172 143.706C228.53 143.875 228.05 144.26 227.71 144.848Z" fill="white"/>
<path d="M226.443 158.941C226.057 159.61 225.535 160.017 224.875 160.19C224.215 160.363 223.523 160.225 222.797 159.806L219.177 157.716L219.77 156.689L223.356 158.759C223.81 159.021 224.228 159.109 224.607 159.004C224.996 158.905 225.301 158.666 225.528 158.273C225.781 157.835 225.84 157.392 225.71 156.962C225.579 156.533 225.199 156.144 224.597 155.797L221.352 153.923L221.945 152.895L225.531 154.966C225.985 155.228 226.403 155.315 226.768 155.234C227.151 155.147 227.449 154.919 227.676 154.526C227.929 154.088 227.988 153.645 227.86 153.186C227.731 152.727 227.375 152.321 226.785 151.98L223.54 150.107L224.133 149.079L229.966 152.447L229.373 153.474L228.59 153.022C228.98 153.786 228.947 154.552 228.5 155.326C228.04 156.122 227.378 156.509 226.507 156.499C226.954 157.296 226.923 158.109 226.443 158.941Z" fill="white"/>
<path d="M220.382 161.29C219.8 161.093 219.251 161.099 218.748 161.316C218.244 161.534 217.823 161.922 217.496 162.487C217.043 163.272 217 164.002 217.361 164.687L216.367 165.283C215.826 164.201 215.883 163.08 216.557 161.914C217.103 160.967 217.827 160.369 218.757 160.121C219.675 159.866 220.58 160.004 221.465 160.515C222.338 161.019 222.909 161.734 223.155 162.645C223.4 163.556 223.262 164.477 222.736 165.389C222.236 166.255 221.516 166.794 220.601 166.989C219.68 167.196 218.801 167.042 217.949 166.551C217.802 166.466 217.661 166.369 217.516 166.254L220.382 161.29ZM221.771 164.832C222.091 164.278 222.199 163.725 222.099 163.19C221.999 162.655 221.724 162.188 221.26 161.813L218.981 165.761C219.59 165.99 220.136 166.013 220.627 165.819C221.11 165.636 221.498 165.306 221.771 164.832Z" fill="white"/>
<path d="M256.158 66.5919L254.712 69.0971L242.229 61.8904L243.329 59.9855L254.105 58.9572L246.468 54.548L247.915 52.0429L260.397 59.2495L259.297 61.1544L248.555 62.2024L256.158 66.5919Z" fill="white"/>
<path d="M237.583 72.507C237.215 71.0477 237.414 69.6543 238.187 68.3151C238.96 66.9759 240.074 66.0951 241.515 65.6956C242.956 65.2962 244.335 65.4764 245.663 66.243C246.979 67.0029 247.824 68.1068 248.21 69.561C248.585 71.0087 248.386 72.4021 247.606 73.7529C246.832 75.092 245.719 75.9729 244.278 76.3723C242.83 76.7833 241.451 76.6031 240.124 75.8365C238.796 75.07 237.957 73.9546 237.583 72.507ZM242.146 68.2456C241.414 68.4388 240.847 68.8966 240.441 69.6008C240.034 70.305 239.921 71.0248 240.12 71.7552C240.312 72.4971 240.769 73.0687 241.483 73.4814C242.198 73.8942 242.922 74.004 243.649 73.7927C244.387 73.588 244.954 73.1302 245.354 72.4376C245.754 71.7449 245.867 71.0251 245.675 70.2831C245.476 69.5527 245.02 68.9812 244.316 68.575C243.601 68.1622 242.878 68.0525 242.146 68.2456Z" fill="white"/>
<path d="M238.083 90.2206C237.483 91.2596 236.674 91.9008 235.645 92.1377C234.615 92.3746 233.55 92.1753 232.427 91.5267L226.935 88.3557L228.288 86.0122L233.621 89.0914C234.154 89.3993 234.654 89.5032 235.102 89.408C235.551 89.3128 235.918 89.017 236.192 88.5437C236.498 88.0126 236.568 87.4988 236.389 86.9955C236.211 86.4922 235.803 86.072 235.145 85.692L230.129 82.7962L231.476 80.4642L236.809 83.5434C237.342 83.8514 237.842 83.9552 238.29 83.86C238.739 83.7649 239.106 83.4691 239.38 82.9957C239.68 82.4762 239.749 81.9623 239.577 81.4475C239.417 80.9393 239.004 80.5009 238.346 80.121L233.331 77.2252L234.684 74.8816L243.603 80.0311L242.25 82.3747L241.308 81.8309C241.789 82.8321 241.7 83.9042 241.046 85.0355C240.406 86.1438 239.495 86.7261 238.338 86.7658C238.87 87.8886 238.77 89.0315 238.083 90.2206Z" fill="white"/>
<path d="M230.721 102.395L229.368 104.738L220.449 99.5887L221.802 97.2451L222.858 97.8544C222.402 96.6523 222.526 95.4155 223.259 94.1455C223.959 92.9334 225.013 92.1564 226.42 91.8147C227.828 91.473 229.187 91.6879 230.514 92.4544C231.831 93.2144 232.696 94.2836 233.115 95.6801C233.523 97.0701 233.377 98.3711 232.677 99.5833C231.944 100.853 230.946 101.586 229.666 101.785L230.721 102.395ZM226.95 94.4605C226.212 94.6652 225.627 95.1279 225.207 95.8552C224.787 96.5826 224.679 97.3204 224.871 98.0624C225.063 98.8043 225.536 99.4006 226.273 99.8264C227.011 100.252 227.752 100.357 228.491 100.152C229.229 99.9476 229.814 99.4849 230.234 98.7576C230.654 98.0303 230.762 97.2924 230.57 96.5504C230.378 95.8085 229.899 95.2238 229.173 94.8045C228.435 94.3787 227.682 94.2673 226.95 94.4605Z" fill="white"/>
<path d="M225.479 112.052C224.906 113.044 224.103 113.674 223.083 113.947C222.052 114.214 220.969 114.019 219.811 113.351L214.342 110.193L215.695 107.85L220.881 110.844C221.471 111.184 222.018 111.285 222.522 111.145C223.027 111.005 223.439 110.658 223.752 110.116C224.099 109.515 224.197 108.926 224.036 108.34C223.868 107.766 223.43 107.267 222.692 106.841L217.881 104.063L219.234 101.719L228.153 106.869L226.8 109.212L225.802 108.636C226.303 109.68 226.192 110.816 225.479 112.052Z" fill="white"/>
<path d="M215.82 136.46L203.337 129.253L204.77 126.771L212.861 131.442L209.14 124.522L209.296 124.227L217.12 123.988L209.052 119.33L210.498 116.825L222.98 124.031L221.494 126.606L213.505 126.842L217.301 133.867L215.808 136.453L215.82 136.46Z" fill="white"/>
<path d="M206.966 143.54L205.613 145.883L196.694 140.734L198.047 138.39L199.103 138.999C198.647 137.797 198.771 136.56 199.504 135.29C200.204 134.078 201.258 133.301 202.665 132.96C204.073 132.618 205.432 132.833 206.759 133.599C208.076 134.359 208.941 135.428 209.36 136.825C209.768 138.215 209.622 139.516 208.922 140.728C208.189 141.998 207.191 142.73 205.911 142.93L206.966 143.54ZM203.195 135.605C202.457 135.81 201.872 136.273 201.452 137C201.032 137.727 200.924 138.465 201.116 139.207C201.308 139.949 201.781 140.545 202.518 140.971C203.256 141.397 203.997 141.502 204.736 141.297C205.474 141.093 206.059 140.63 206.479 139.902C206.899 139.175 207.007 138.437 206.815 137.695C206.623 136.953 206.144 136.369 205.418 135.949C204.68 135.524 203.934 135.401 203.195 135.605Z" fill="white"/>
<path d="M201.731 153.185C201.157 154.177 200.355 154.807 199.335 155.08C198.304 155.347 197.221 155.152 196.063 154.484L190.594 151.326L191.947 148.983L197.132 151.977C197.723 152.317 198.27 152.418 198.774 152.278C199.278 152.138 199.691 151.791 200.004 151.249C200.35 150.648 200.449 150.059 200.288 149.473C200.12 148.899 199.682 148.4 198.944 147.974L194.133 145.196L195.486 142.853L204.405 148.002L203.052 150.346L202.053 149.769C202.549 150.825 202.437 151.961 201.731 153.185Z" fill="white"/>
<path d="M190.01 157.316L187.684 161.345L185.528 160.1L189.66 152.943L191.192 153.827L194.217 160.669L196.323 157.021L198.479 158.265L194.554 165.065L193.022 164.181L190.01 157.316Z" fill="white"/>
<path d="M181.501 169.643C181.133 168.184 181.332 166.791 182.105 165.452C182.879 164.112 183.992 163.232 185.433 162.832C186.874 162.433 188.253 162.613 189.581 163.379C190.897 164.139 191.742 165.243 192.128 166.697C192.503 168.145 192.304 169.539 191.524 170.889C190.751 172.228 189.637 173.109 188.196 173.509C186.748 173.92 185.37 173.74 184.042 172.973C182.714 172.206 181.875 171.091 181.501 169.643ZM186.058 165.394C185.326 165.587 184.759 166.045 184.352 166.749C183.946 167.453 183.833 168.173 184.031 168.903C184.223 169.645 184.68 170.217 185.395 170.629C186.11 171.042 186.833 171.152 187.56 170.941C188.299 170.736 188.866 170.278 189.266 169.586C189.666 168.893 189.779 168.173 189.587 167.431C189.388 166.701 188.931 166.129 188.228 165.723C187.519 165.299 186.796 165.189 186.058 165.394Z" fill="white"/>
<path d="M175.282 180.414C174.914 178.955 175.114 177.562 175.887 176.223C176.66 174.883 177.774 174.003 179.215 173.603C180.656 173.204 182.034 173.384 183.362 174.15C184.678 174.91 185.524 176.014 185.91 177.468C186.284 178.916 186.085 180.31 185.305 181.66C184.532 183 183.418 183.88 181.977 184.28C180.53 184.691 179.151 184.511 177.823 183.744C176.496 182.977 175.65 181.874 175.282 180.414ZM179.839 176.165C179.107 176.358 178.54 176.816 178.134 177.52C177.727 178.224 177.614 178.944 177.813 179.674C178.005 180.416 178.461 180.988 179.176 181.4C179.891 181.813 180.615 181.923 181.342 181.712C182.08 181.507 182.647 181.049 183.047 180.357C183.447 179.664 183.56 178.944 183.368 178.202C183.169 177.472 182.713 176.9 182.009 176.494C181.294 176.081 180.571 175.971 179.839 176.165Z" fill="white"/>
<path d="M178.433 189.423C178.874 189.969 179.099 190.576 179.096 191.236C179.093 191.897 178.914 192.548 178.56 193.159L175.996 191.679C176.489 191.009 176.719 190.295 176.671 189.513C176.623 188.732 176.182 188.107 175.319 187.609L171.053 185.146L172.406 182.802L181.325 187.952L179.972 190.295L178.44 189.411L178.433 189.423Z" fill="white"/>
<path d="M125.565 322.216L123.338 326.072L122.317 325.482L125.176 320.53L133.335 325.24L130.509 330.135L129.488 329.546L131.681 325.747L129.173 324.299L127.153 327.798L126.144 327.214L128.163 323.716L125.565 322.216Z" fill="white"/>
<path d="M118.645 331.843L119.344 330.631L122.506 330.24L121.264 327.306L121.964 326.094L123.647 330.098L127.705 329.593L126.999 330.817L124.099 331.175L125.232 333.877L124.532 335.089L122.94 331.322L118.645 331.843Z" fill="white"/>
<path d="M122.179 339.532C121.699 340.364 120.997 340.898 120.056 341.139C119.126 341.387 118.233 341.257 117.371 340.759C116.52 340.267 115.96 339.559 115.698 338.623C115.448 337.694 115.549 336.813 116.028 335.982C116.595 335 117.414 334.473 118.479 334.41L115.143 332.484L115.736 331.457L123.895 336.167L123.302 337.195L122.303 336.618C122.793 337.578 122.745 338.551 122.179 339.532ZM117.1 336.431C116.76 337.02 116.678 337.634 116.842 338.268C117.006 338.901 117.392 339.385 117.982 339.726C118.572 340.067 119.185 340.159 119.815 339.984C120.445 339.809 120.936 339.431 121.276 338.842C121.623 338.242 121.712 337.616 121.541 336.994C121.377 336.361 120.991 335.876 120.401 335.535C119.811 335.195 119.199 335.103 118.568 335.278C117.933 335.434 117.447 335.831 117.1 336.431Z" fill="white"/>
<path d="M120.34 344.813C120.454 344.617 120.622 344.483 120.82 344.428C121.018 344.373 121.228 344.402 121.41 344.507C121.591 344.612 121.722 344.779 121.784 344.985C121.847 345.191 121.815 345.403 121.702 345.599C121.595 345.784 121.434 345.906 121.218 345.966C121.002 346.026 120.809 345.992 120.617 345.881C120.424 345.77 120.305 345.608 120.253 345.409C120.202 345.21 120.234 344.998 120.34 344.813ZM113.752 340.317L119.585 343.684L118.992 344.712L113.159 341.344L113.752 340.317Z" fill="white"/>
<path d="M116.498 346.751C117.031 347.505 117.034 348.339 116.521 349.227L115.465 348.618C115.781 348.123 115.892 347.618 115.821 347.084C115.744 346.563 115.386 346.109 114.75 345.742L111.664 343.96L112.257 342.933L118.09 346.3L117.496 347.328L116.498 346.751Z" fill="white"/>
<path d="M113.362 354.437L112.722 355.546L107.937 349.551C107.425 348.917 107.121 348.264 107.041 347.617C106.96 346.97 107.108 346.348 107.482 345.778L108.424 346.322C107.947 347.017 108.038 347.777 108.696 348.603L108.845 348.843L116.148 349.612L115.508 350.72L109.897 350.113L113.362 354.437Z" fill="white"/>
<path d="M110.921 364.064C110.267 365.196 109.33 365.901 108.114 366.2C106.898 366.498 105.709 366.304 104.574 365.649C103.428 364.987 102.676 364.061 102.327 362.858C101.966 361.649 102.12 360.492 102.773 359.36L104.639 356.128L112.798 360.838L110.932 364.071L110.921 364.064ZM103.783 359.943C103.296 360.786 103.191 361.649 103.457 362.526C103.722 363.403 104.295 364.087 105.169 364.592C106.043 365.096 106.922 365.25 107.814 365.042C108.706 364.833 109.395 364.322 109.888 363.468L111.121 361.332L105.016 357.808L103.783 359.943Z" fill="white"/>
<path d="M102.764 372.794L102.17 373.821L96.3378 370.454L96.931 369.426L97.9296 370.003C97.4579 369.038 97.4986 368.076 98.0652 367.095C98.5451 366.264 99.2467 365.73 100.188 365.488C101.118 365.24 102.011 365.371 102.873 365.869C103.724 366.36 104.284 367.068 104.546 368.004C104.796 368.933 104.695 369.814 104.216 370.646C103.649 371.627 102.83 372.155 101.765 372.217L102.764 372.794ZM98.9838 367.81C98.6372 368.41 98.5482 369.036 98.7187 369.658C98.8826 370.291 99.2686 370.776 99.8587 371.116C100.449 371.457 101.061 371.549 101.692 371.374C102.322 371.2 102.813 370.821 103.16 370.221C103.5 369.632 103.589 369.006 103.418 368.384C103.254 367.751 102.868 367.266 102.278 366.926C101.688 366.585 101.075 366.493 100.445 366.668C99.8099 366.824 99.3304 367.209 98.9838 367.81Z" fill="white"/>
<path d="M98.422 378.06L99.3352 376.478L96.1806 374.657C95.8969 374.493 95.6593 374.433 95.4678 374.476C95.2764 374.52 95.1196 374.66 94.9797 374.902C94.8397 375.145 94.673 375.433 94.4844 375.786L93.5766 375.262C93.983 374.296 94.4311 373.677 94.932 373.413C95.433 373.148 96.0409 373.222 96.7671 373.641L99.9217 375.462L100.602 374.285L101.577 374.848L100.898 376.026L102.225 376.792L101.938 377.996L100.304 377.053L99.3913 378.635L98.4154 378.071L98.422 378.06Z" fill="white"/>
<path d="M95.0744 378.328C94.4925 378.131 93.944 378.138 93.4403 378.355C92.9367 378.572 92.5159 378.96 92.1893 379.526C91.7361 380.311 91.6931 381.04 92.0539 381.726L91.0594 382.321C90.5189 381.24 90.5762 380.118 91.2494 378.952C91.796 378.006 92.5196 377.408 93.4496 377.159C94.3682 376.905 95.2725 377.042 96.1576 377.553C97.0313 378.058 97.6023 378.772 97.8478 379.683C98.0932 380.595 97.955 381.515 97.4285 382.428C96.9286 383.293 96.2089 383.832 95.2943 384.028C94.3729 384.235 93.4933 384.081 92.6423 383.589C92.4948 383.504 92.3539 383.407 92.2084 383.293L95.0744 378.328ZM96.4706 381.859C96.7905 381.305 96.8983 380.751 96.7985 380.217C96.6988 379.682 96.4235 379.215 95.9595 378.84L93.6733 382.799C94.2827 383.028 94.8292 383.051 95.3195 382.857C95.8098 382.663 96.1973 382.332 96.4706 381.859Z" fill="white"/>
<path d="M97.6385 315.867C96.9516 314.331 97.0613 312.779 97.9545 311.232C98.8476 309.685 100.131 308.825 101.811 308.64C103.484 308.467 105.304 308.933 107.267 310.066C109.23 311.2 110.549 312.531 111.229 314.078C111.916 315.614 111.807 317.167 110.913 318.714C110.02 320.26 108.737 321.12 107.057 321.305C105.384 321.478 103.564 321.012 101.601 319.879C99.6381 318.746 98.3187 317.414 97.6385 315.867ZM102.215 310.536C101.055 310.605 100.164 311.153 99.5705 312.18C98.9773 313.208 98.9373 314.247 99.4618 315.304C99.9749 316.354 101.018 317.326 102.561 318.217C104.104 319.108 105.467 319.525 106.645 319.451C107.822 319.376 108.702 318.822 109.295 317.795C109.889 316.767 109.929 315.728 109.398 314.683C108.878 313.644 107.835 312.672 106.28 311.775C104.737 310.884 103.374 310.466 102.215 310.536Z" fill="white"/>
<path d="M94.6467 317.511L95.9971 318.291L97.9046 325.365C98.3916 327.247 99.0549 328.43 99.8947 328.915C100.598 329.321 101.27 329.416 101.92 329.207C102.57 328.997 103.07 328.578 103.43 327.954C104.123 326.754 104.067 325.567 103.257 324.375L104.894 323.427C105.466 324.296 105.759 325.204 105.772 326.151C105.785 327.098 105.536 328.001 105.037 328.866C104.423 329.929 103.55 330.656 102.404 331.041C101.259 331.426 100.113 331.288 98.9442 330.613C97.6846 329.886 96.7448 328.343 96.1314 325.972L94.8384 320.9L91.5257 326.638L89.9257 325.714L94.6581 317.518L94.6467 317.511Z" fill="white"/>
<path d="M86.8025 327.036L87.3264 326.076L99.1568 342.588L98.6329 343.548L86.8025 327.036Z" fill="white"/>
<path d="M88.0343 345.972C87.2928 346.837 86.4244 347.398 85.4243 347.636C84.4176 347.886 83.4386 347.721 82.4514 347.151C81.2372 346.45 80.5306 345.473 80.3136 344.224C80.0966 342.975 80.3381 341.744 81.0379 340.532C81.5978 339.562 82.3066 338.833 83.1711 338.331C84.0355 337.83 84.9662 337.659 85.9746 337.826L85.9718 339.717C84.601 339.418 83.5004 340.014 82.6539 341.481C82.2007 342.266 82.0317 343.03 82.1423 343.756C82.2528 344.481 82.6802 345.051 83.4065 345.471C84.1327 345.89 84.8401 345.975 85.5352 345.715C86.2303 345.454 86.8078 344.926 87.2611 344.14L87.5144 343.702L88.9222 343.622L91.1262 348.819L94.3855 343.174L95.9401 344.072L91.541 351.691L90.0952 350.841L88.0343 345.972Z" fill="white"/>
<path d="M74.5233 355.904C73.8363 354.368 73.9461 352.815 74.8393 351.268C75.7324 349.721 77.0157 348.862 78.6957 348.677C80.3691 348.504 82.1883 348.97 84.1515 350.103C86.1146 351.236 87.434 352.568 88.1142 354.115C88.8011 355.651 88.6914 357.203 87.7982 358.75C86.9051 360.297 85.6218 361.157 83.9418 361.342C82.2684 361.515 80.4491 361.049 78.486 359.916C76.5229 358.782 75.2035 357.451 74.5233 355.904ZM79.0993 350.572C77.9396 350.642 77.0485 351.189 76.4553 352.217C75.8621 353.244 75.822 354.283 76.3465 355.34C76.8596 356.391 77.9025 357.362 79.4458 358.253C80.9891 359.144 82.3519 359.562 83.5296 359.488C84.7072 359.413 85.587 358.859 86.1802 357.832C86.7734 356.804 86.8135 355.765 86.2823 354.72C85.7625 353.681 84.7196 352.709 83.165 351.812C81.6284 350.909 80.2656 350.492 79.0993 350.572Z" fill="white"/>
<path d="M223.713 476.18L225.939 472.324C226.632 471.123 226.816 470.044 225.965 468.845L213.722 451.894L210.696 457.135C210.696 457.135 212.42 459.285 212.79 459.745L209.098 466.141C208.376 465.924 206.051 465.182 206.051 465.182L203.371 469.823L223.713 476.18ZM215.645 463.318C216.438 464.329 219.544 468.201 219.544 468.201C219.555 468.207 220.353 469.237 220.871 469.859L219.123 469.297C219.123 469.297 214.28 467.778 213.248 467.444L215.634 463.311L215.645 463.318Z" fill="white"/>
<path d="M230.584 452.748C229.739 452.245 228.563 452.997 226.722 454.274C223.769 456.402 221.452 456.85 219.4 455.634C215.687 453.444 215.236 448.643 218.275 443.379C219.591 441.152 221.28 439.249 222.453 438.371L226.086 441.408L225.418 441.884C223.808 443.125 222.916 444.041 221.763 446.039C220.936 447.47 220.606 449.327 221.802 450.033C222.59 450.503 223.537 450.172 225.542 448.744C227.504 447.337 230.392 445.664 232.966 447.181C236.447 449.222 236.886 454.123 234.039 459.053C232.92 460.992 231.623 462.321 230.693 463.093L227.183 460.158L227.647 459.826C228.543 459.112 229.582 458.126 230.499 456.485C231.612 454.557 231.333 453.18 230.584 452.748Z" fill="white"/>
<path d="M239.78 448.375L223.578 434.85L226.457 429.862L242.666 443.377L239.78 448.375Z" fill="white"/>
<path d="M240.867 425.082C245.992 425.824 251.752 423.84 256.679 418.634L257.002 418.913L252.53 426.659C251.889 427.69 251.074 428.343 249.806 427.996L240.867 425.082Z" fill="white"/>
<path d="M243.815 441.362L230.375 423.104L233.421 417.828L251.013 422.028C247.14 424.071 242.349 424.953 239.554 424.632L237.386 424.089L246.849 436.079L243.803 441.355L243.815 441.362Z" fill="white"/>
<path d="M273.896 115.222L291.892 84.0517C293.045 82.0545 295.603 81.3455 297.566 82.4789L320.25 95.5754C322.213 96.7088 322.878 99.2785 321.725 101.276L303.729 132.446C302.575 134.443 300.018 135.152 298.054 134.019L275.371 120.922C273.407 119.789 272.743 117.219 273.896 115.222Z" fill="#F6C859"/>
<path d="M289.436 97.5034C289.53 97.3418 289.714 97.2326 289.901 97.2485C290.183 97.2575 290.391 97.5006 290.378 97.7854C290.334 98.6219 290.429 99.8465 291.191 100.964C292.156 102.383 293.709 103.049 293.987 102.855C294.061 102.806 294.078 102.462 294.092 102.254C294.116 101.714 294.173 100.961 294.786 100.423C295.393 99.8959 296.158 99.9068 296.517 99.9139C298.913 99.9578 303.813 102.372 305.549 104.79C306.126 105.6 306.306 106.335 306.096 107.014C305.879 107.705 305.342 108.057 304.912 108.331C304.555 108.556 304.387 108.69 304.39 108.815C304.4 109.375 305.904 110.228 307.429 110.339C308.778 110.44 309.886 109.91 310.588 109.454C310.828 109.3 311.136 109.37 311.291 109.598C311.44 109.838 311.367 110.149 311.138 110.31C310.312 110.849 308.979 111.48 307.344 111.352C305.731 111.236 303.397 110.274 303.381 108.833C303.377 108.107 303.931 107.75 304.375 107.452C304.714 107.232 305.028 107.029 305.127 106.701C305.263 106.256 304.973 105.735 304.715 105.37C303.212 103.256 298.588 100.94 296.475 100.905C296.116 100.898 295.714 100.912 295.432 101.165C295.156 101.406 295.121 101.755 295.092 102.277C295.059 102.781 295.032 103.351 294.539 103.682C293.489 104.399 291.412 103.123 290.334 101.531C289.416 100.185 289.285 98.709 289.339 97.7243C289.368 97.6485 289.396 97.5727 289.436 97.5034Z" fill="#7D662D"/>
<path d="M304.65 104.517L309.276 96.505C309.416 96.2626 309.728 96.1659 309.977 96.3098C310.226 96.4536 310.306 96.761 310.159 97.015L305.533 105.027C305.393 105.269 305.081 105.366 304.832 105.222C304.583 105.078 304.51 104.759 304.65 104.517Z" fill="#7D662D"/>
<path d="M296.764 99.9638L301.389 91.9518C301.529 91.7094 301.842 91.6127 302.091 91.7565C302.34 91.9004 302.419 92.2077 302.273 92.4617L297.647 100.474C297.507 100.716 297.194 100.813 296.945 100.669C296.696 100.525 296.624 100.206 296.764 99.9638Z" fill="#7D662D"/>
<path d="M284.037 106.855C284.077 106.785 284.129 106.723 284.203 106.673C285.029 106.134 286.361 105.503 287.997 105.631C289.915 105.769 292.059 106.929 291.962 108.197C291.911 108.784 291.442 109.098 291.023 109.379C290.585 109.665 290.3 109.87 290.229 110.229C290.149 110.63 290.388 111.029 290.525 111.262C291.612 113.075 295.918 115.915 298.512 116.166C298.957 116.207 299.56 116.186 299.871 115.857C300.067 115.648 300.392 115.635 300.586 115.824C300.791 116.019 300.787 116.34 300.608 116.545C300.126 117.067 299.387 117.271 298.398 117.177C295.435 116.883 290.888 113.858 289.659 111.793C289.473 111.486 289.081 110.829 289.234 110.04C289.394 109.239 290.017 108.814 290.473 108.523C290.646 108.407 290.942 108.209 290.941 108.131C290.97 107.794 289.617 106.782 287.905 106.655C286.556 106.554 285.448 107.084 284.746 107.541C284.506 107.695 284.198 107.625 284.043 107.396C283.942 107.23 283.944 107.016 284.037 106.855Z" fill="#7D662D"/>
<path d="M301.257 114.426C301.364 114.241 301.577 114.133 301.799 114.169C305.166 114.835 306.04 118.326 305.99 119.252C305.977 119.537 305.733 119.75 305.451 119.741C305.168 119.732 304.961 119.489 304.974 119.204C305.002 118.789 304.452 115.732 301.584 115.169C301.311 115.119 301.134 114.848 301.188 114.571C301.215 114.525 301.23 114.472 301.257 114.426Z" fill="#7D662D"/>
<path d="M293.086 124.547L297.711 116.535C297.851 116.292 298.164 116.196 298.413 116.34C298.662 116.483 298.741 116.791 298.595 117.045L293.969 125.057C293.829 125.299 293.517 125.396 293.267 125.252C293.018 125.108 292.939 124.801 293.086 124.547Z" fill="#7D662D"/>
<path d="M285.199 119.994L289.825 111.982C289.965 111.739 290.277 111.643 290.527 111.786C290.776 111.93 290.855 112.238 290.708 112.492L286.083 120.504C285.943 120.746 285.63 120.843 285.381 120.699C285.132 120.555 285.053 120.248 285.199 119.994Z" fill="#7D662D"/>
<defs>
<linearGradient id="paint0_linear_3_322" x1="172.053" y1="26.1803" x2="303.745" y2="501.269" gradientUnits="userSpaceOnUse">
<stop/>
<stop offset="1" stop-opacity="0.85"/>
</linearGradient>
<linearGradient id="paint1_linear_3_322" x1="194.769" y1="328.101" x2="247.121" y2="516.965" gradientUnits="userSpaceOnUse">
<stop/>
<stop offset="1"/>
</linearGradient>
<linearGradient id="paint2_linear_3_322" x1="134.399" y1="36.6217" x2="252.618" y2="463.104" gradientUnits="userSpaceOnUse">
<stop stop-color="#CECECE"/>
<stop offset="1"/>
</linearGradient>
<linearGradient id="paint3_linear_3_322" x1="376.57" y1="69.4751" x2="427.173" y2="252.03" gradientUnits="userSpaceOnUse">
<stop stop-opacity="0.83"/>
<stop offset="1" stop-opacity="0.92"/>
</linearGradient>
<linearGradient id="paint4_linear_3_322" x1="88.7555" y1="143.095" x2="124.197" y2="270.953" gradientUnits="userSpaceOnUse">
<stop/>
<stop offset="1" stop-color="white"/>
</linearGradient>
<linearGradient id="paint5_linear_3_322" x1="126.035" y1="38.9361" x2="212.976" y2="352.581" gradientUnits="userSpaceOnUse">
<stop stop-opacity="0.87"/>
<stop offset="1" stop-opacity="0.88"/>
</linearGradient>
<linearGradient id="paint6_linear_3_322" x1="172.053" y1="26.1803" x2="303.745" y2="501.269" gradientUnits="userSpaceOnUse">
<stop/>
<stop offset="1" stop-color="white"/>
</linearGradient>
</defs>
</svg>
